<?xml version="1.0" encoding="UTF-8" standalone="no"?>
<!DOCTYPE svg PUBLIC "-//W3C//DTD SVG 1.1//EN" "http://www.w3.org/Graphics/SVG/1.1/DTD/svg11.dtd">
<svg width="100%" height="100%" viewBox="0 0 253 253" version="1.1" xmlns="http://www.w3.org/2000/svg" xmlns:xlink="http://www.w3.org/1999/xlink" xml:space="preserve" xmlns:serif="http://www.serif.com/" style="fill-rule:evenodd;clip-rule:evenodd;stroke-linejoin:round;stroke-miterlimit:2;">
    <g id="elements">
        <path d="M11,11L22,11L22,22L11,22L11,11ZM22,11L33,11L33,22L22,22L22,11ZM33,11L44,11L44,22L33,22L33,11ZM44,11L55,11L55,22L44,22L44,11ZM55,11L66,11L66,22L55,22L55,11ZM66,11L77,11L77,22L66,22L66,11ZM77,11L88,11L88,22L77,22L77,11ZM121,11L132,11L132,22L121,22L121,11ZM132,11L143,11L143,22L132,22L132,11ZM143,11L154,11L154,22L143,22L143,11ZM165,11L176,11L176,22L165,22L165,11ZM176,11L187,11L187,22L176,22L176,11ZM187,11L198,11L198,22L187,22L187,11ZM198,11L209,11L209,22L198,22L198,11ZM209,11L220,11L220,22L209,22L209,11ZM220,11L231,11L231,22L220,22L220,11ZM231,11L242,11L242,22L231,22L231,11ZM11,22L22,22L22,33L11,33L11,22ZM77,22L88,22L88,33L77,33L77,22ZM99,22L110,22L110,33L99,33L99,22ZM110,22L121,22L121,33L110,33L110,22ZM121,22L132,22L132,33L121,33L121,22ZM143,22L154,22L154,33L143,33L143,22ZM165,22L176,22L176,33L165,33L165,22ZM231,22L242,22L242,33L231,33L231,22ZM11,33L22,33L22,44L11,44L11,33ZM33,33L44,33L44,44L33,44L33,33ZM44,33L55,33L55,44L44,44L44,33ZM55,33L66,33L66,44L55,44L55,33ZM77,33L88,33L88,44L77,44L77,33ZM121,33L132,33L132,44L121,44L121,33ZM132,33L143,33L143,44L132,44L132,33ZM143,33L154,33L154,44L143,44L143,33ZM165,33L176,33L176,44L165,44L165,33ZM187,33L198,33L198,44L187,44L187,33ZM198,33L209,33L209,44L198,44L198,33ZM209,33L220,33L220,44L209,44L209,33ZM231,33L242,33L242,44L231,44L231,33ZM11,44L22,44L22,55L11,55L11,44ZM33,44L44,44L44,55L33,55L33,44ZM44,44L55,44L55,55L44,55L44,44ZM55,44L66,44L66,55L55,55L55,44ZM77,44L88,44L88,55L77,55L77,44ZM99,44L110,44L110,55L99,55L99,44ZM110,44L121,44L121,55L110,55L110,44ZM143,44L154,44L154,55L143,55L143,44ZM165,44L176,44L176,55L165,55L165,44ZM187,44L198,44L198,55L187,55L187,44ZM198,44L209,44L209,55L198,55L198,44ZM209,44L220,44L220,55L209,55L209,44ZM231,44L242,44L242,55L231,55L231,44ZM11,55L22,55L22,66L11,66L11,55ZM33,55L44,55L44,66L33,66L33,55ZM44,55L55,55L55,66L44,66L44,55ZM55,55L66,55L66,66L55,66L55,55ZM77,55L88,55L88,66L77,66L77,55ZM110,55L121,55L121,66L110,66L110,55ZM143,55L154,55L154,66L143,66L143,55ZM165,55L176,55L176,66L165,66L165,55ZM187,55L198,55L198,66L187,66L187,55ZM198,55L209,55L209,66L198,66L198,55ZM209,55L220,55L220,66L209,66L209,55ZM231,55L242,55L242,66L231,66L231,55ZM11,66L22,66L22,77L11,77L11,66ZM77,66L88,66L88,77L77,77L77,66ZM99,66L110,66L110,77L99,77L99,66ZM132,66L143,66L143,77L132,77L132,66ZM165,66L176,66L176,77L165,77L165,66ZM231,66L242,66L242,77L231,77L231,66ZM11,77L22,77L22,88L11,88L11,77ZM22,77L33,77L33,88L22,88L22,77ZM33,77L44,77L44,88L33,88L33,77ZM44,77L55,77L55,88L44,88L44,77ZM55,77L66,77L66,88L55,88L55,77ZM66,77L77,77L77,88L66,88L66,77ZM77,77L88,77L88,88L77,88L77,77ZM99,77L110,77L110,88L99,88L99,77ZM121,77L132,77L132,88L121,88L121,77ZM143,77L154,77L154,88L143,88L143,77ZM165,77L176,77L176,88L165,88L165,77ZM176,77L187,77L187,88L176,88L176,77ZM187,77L198,77L198,88L187,88L187,77ZM198,77L209,77L209,88L198,88L198,77ZM209,77L220,77L220,88L209,88L209,77ZM220,77L231,77L231,88L220,88L220,77ZM231,77L242,77L242,88L231,88L231,77ZM110,88L121,88L121,99L110,99L110,88ZM11,99L22,99L22,110L11,110L11,99ZM22,99L33,99L33,110L22,110L22,99ZM33,99L44,99L44,110L33,110L33,99ZM44,99L55,99L55,110L44,110L44,99ZM55,99L66,99L66,110L55,110L55,99ZM77,99L88,99L88,110L77,110L77,99ZM88,99L99,99L99,110L88,110L88,99ZM99,99L110,99L110,110L99,110L99,99ZM132,99L143,99L143,110L132,110L132,99ZM154,99L165,99L165,110L154,110L154,99ZM176,99L187,99L187,110L176,110L176,99ZM198,99L209,99L209,110L198,110L198,99ZM220,99L231,99L231,110L220,110L220,99ZM11,110L22,110L22,121L11,121L11,110ZM33,110L44,110L44,121L33,121L33,110ZM44,110L55,110L55,121L44,121L44,110ZM55,110L66,110L66,121L55,121L55,110ZM99,110L110,110L110,121L99,121L99,110ZM110,110L121,110L121,121L110,121L110,110ZM132,110L143,110L143,121L132,121L132,110ZM143,110L154,110L154,121L143,121L143,110ZM154,110L165,110L165,121L154,121L154,110ZM165,110L176,110L176,121L165,121L165,110ZM198,110L209,110L209,121L198,121L198,110ZM209,110L220,110L220,121L209,121L209,110ZM231,110L242,110L242,121L231,121L231,110ZM22,121L33,121L33,132L22,132L22,121ZM66,121L77,121L77,132L66,132L66,121ZM77,121L88,121L88,132L77,132L77,121ZM110,121L121,121L121,132L110,132L110,121ZM121,121L132,121L132,132L121,132L121,121ZM143,121L154,121L154,132L143,132L143,121ZM165,121L176,121L176,132L165,132L165,121ZM176,121L187,121L187,132L176,132L176,121ZM198,121L209,121L209,132L198,132L198,121ZM209,121L220,121L220,132L209,132L209,121ZM220,121L231,121L231,132L220,132L220,121ZM11,132L22,132L22,143L11,143L11,132ZM22,132L33,132L33,143L22,143L22,132ZM33,132L44,132L44,143L33,143L33,132ZM44,132L55,132L55,143L44,143L44,132ZM66,132L77,132L77,143L66,143L66,132ZM88,132L99,132L99,143L88,143L88,132ZM132,132L143,132L143,143L132,143L132,132ZM143,132L154,132L154,143L143,143L143,132ZM154,132L165,132L165,143L154,143L154,132ZM165,132L176,132L176,143L165,143L165,132ZM198,132L209,132L209,143L198,143L198,132ZM209,132L220,132L220,143L209,143L209,132ZM33,143L44,143L44,154L33,154L33,143ZM44,143L55,143L55,154L44,154L44,143ZM77,143L88,143L88,154L77,154L77,143ZM88,143L99,143L99,154L88,154L88,143ZM99,143L110,143L110,154L99,154L99,143ZM143,143L154,143L154,154L143,154L143,143ZM176,143L187,143L187,154L176,154L176,143ZM231,143L242,143L242,154L231,154L231,143ZM99,154L110,154L110,165L99,165L99,154ZM110,154L121,154L121,165L110,165L110,154ZM143,154L154,154L154,165L143,165L143,154ZM176,154L187,154L187,165L176,165L176,154ZM198,154L209,154L209,165L198,165L198,154ZM231,154L242,154L242,165L231,165L231,154ZM11,165L22,165L22,176L11,176L11,165ZM22,165L33,165L33,176L22,176L22,165ZM33,165L44,165L44,176L33,176L33,165ZM44,165L55,165L55,176L44,176L44,165ZM55,165L66,165L66,176L55,176L55,165ZM66,165L77,165L77,176L66,176L66,165ZM77,165L88,165L88,176L77,176L77,165ZM99,165L110,165L110,176L99,176L99,165ZM132,165L143,165L143,176L132,176L132,165ZM154,165L165,165L165,176L154,176L154,165ZM187,165L198,165L198,176L187,176L187,165ZM209,165L220,165L220,176L209,176L209,165ZM220,165L231,165L231,176L220,176L220,165ZM11,176L22,176L22,187L11,187L11,176ZM77,176L88,176L88,187L77,187L77,176ZM110,176L121,176L121,187L110,187L110,176ZM121,176L132,176L132,187L121,187L121,176ZM176,176L187,176L187,187L176,187L176,176ZM187,176L198,176L198,187L187,187L187,176ZM198,176L209,176L209,187L198,187L198,176ZM209,176L220,176L220,187L209,187L209,176ZM220,176L231,176L231,187L220,187L220,176ZM11,187L22,187L22,198L11,198L11,187ZM33,187L44,187L44,198L33,198L33,187ZM44,187L55,187L55,198L44,198L44,187ZM55,187L66,187L66,198L55,198L55,187ZM77,187L88,187L88,198L77,198L77,187ZM99,187L110,187L110,198L99,198L99,187ZM132,187L143,187L143,198L132,198L132,187ZM154,187L165,187L165,198L154,198L154,187ZM187,187L198,187L198,198L187,198L187,187ZM220,187L231,187L231,198L220,198L220,187ZM11,198L22,198L22,209L11,209L11,198ZM33,198L44,198L44,209L33,209L33,198ZM44,198L55,198L55,209L44,209L44,198ZM55,198L66,198L66,209L55,209L55,198ZM77,198L88,198L88,209L77,209L77,198ZM99,198L110,198L110,209L99,209L99,198ZM121,198L132,198L132,209L121,209L121,198ZM132,198L143,198L143,209L132,209L132,198ZM143,198L154,198L154,209L143,209L143,198ZM154,198L165,198L165,209L154,209L154,198ZM165,198L176,198L176,209L165,209L165,198ZM176,198L187,198L187,209L176,209L176,198ZM198,198L209,198L209,209L198,209L198,198ZM11,209L22,209L22,220L11,220L11,209ZM33,209L44,209L44,220L33,220L33,209ZM44,209L55,209L55,220L44,220L44,209ZM55,209L66,209L66,220L55,220L55,209ZM77,209L88,209L88,220L77,220L77,209ZM99,209L110,209L110,220L99,220L99,209ZM143,209L154,209L154,220L143,220L143,209ZM165,209L176,209L176,220L165,220L165,209ZM176,209L187,209L187,220L176,220L176,209ZM209,209L220,209L220,220L209,220L209,209ZM11,220L22,220L22,231L11,231L11,220ZM77,220L88,220L88,231L77,231L77,220ZM99,220L110,220L110,231L99,231L99,220ZM110,220L121,220L121,231L110,231L110,220ZM132,220L143,220L143,231L132,231L132,220ZM143,220L154,220L154,231L143,231L143,220ZM154,220L165,220L165,231L154,231L154,220ZM165,220L176,220L176,231L165,231L165,220ZM187,220L198,220L198,231L187,231L187,220ZM198,220L209,220L209,231L198,231L198,220ZM209,220L220,220L220,231L209,231L209,220ZM11,231L22,231L22,242L11,242L11,231ZM22,231L33,231L33,242L22,242L22,231ZM33,231L44,231L44,242L33,242L33,231ZM44,231L55,231L55,242L44,242L44,231ZM55,231L66,231L66,242L55,242L55,231ZM66,231L77,231L77,242L66,242L66,231ZM77,231L88,231L88,242L77,242L77,231ZM99,231L110,231L110,242L99,242L99,231ZM110,231L121,231L121,242L110,242L110,231ZM143,231L154,231L154,242L143,242L143,231ZM187,231L198,231L198,242L187,242L187,231ZM220,231L231,231L231,242L220,242L220,231Z" style="fill:white;fill-rule:nonzero;"/>
    </g>
</svg>
