<?xml version="1.0" encoding="utf-8"?>
<!-- Generator: Adobe Illustrator 24.1.1, SVG Export Plug-In . SVG Version: 6.00 Build 0)  -->
<svg version="1.1" id="Ebene_1" xmlns="http://www.w3.org/2000/svg" xmlns:xlink="http://www.w3.org/1999/xlink" x="0px" y="0px"
	 viewBox="0 0 166 196" style="enable-background:new 0 0 166 196;" xml:space="preserve">
<style type="text/css">
	.st0{display:none;}
	.st1{display:inline;fill:#006130;}
	.st2{display:inline;fill:#00A5DB;}
	.st3{fill:#006130;}
	.st4{fill:#00A5DB;}
	.st5{display:inline;}
	.st6{display:inline;clip-path:url(#SVGID_2_);fill:#EE7203;}
	.st7{display:inline;clip-path:url(#SVGID_2_);fill:#FFFFFF;}
	.st8{display:inline;clip-path:url(#SVGID_2_);fill:#006130;}
</style>
<g class="st0">
	<path class="st1" d="M29.2528553,175.4348755h2.6736526c0.7031116,0,1.1833935-0.1016541,1.4389973-0.3063965
		c0.2541809-0.2032928,0.3832512-0.5884552,0.3832512-1.151886c0-0.7071533-0.0958366-1.166748-0.2839813-1.3799896
		c-0.1901474-0.2135162-0.5974922-0.3205109-1.2196083-0.3205109h-2.9923115V175.4348755L29.2528553,175.4348755z
		 M28.3292961,179.335556v-7.8001556h3.9043388c0.8796959,0,1.5000839,0.1658478,1.860157,0.4975281
		c0.3597794,0.331192,0.5393448,0.9077606,0.5393448,1.725296c0,0.7207489-0.0975456,1.2231445-0.2935448,1.5071564
		c-0.1968307,0.283783-0.5689392,0.4685822-1.1203384,0.5515137v0.0172577
		c0.8681335,0.0610504,1.3018036,0.5632019,1.3018036,1.5069275v1.9944763h-0.9245415v-1.7933655
		c0-0.9104309-0.4139977-1.3658905-1.2441978-1.3658905h-0.3051529h-2.7943096v3.159256H28.3292961L28.3292961,179.335556z"/>
	<path class="st1" d="M36.7888336,171.5354004v3.0111694l0.0175171,0.0111847
		c0.2134476-0.5074921,0.805481-0.7621002,1.7796173-0.7621002c1.4425545,0,2.1637039,0.6079407,2.1637039,1.8247681v0.2232208
		v3.4919128h-0.8387566v-3.4919128v-0.1541748c0-0.8177643-0.4431496-1.2277527-1.3302078-1.2277527
		c-0.7131462,0-1.19133,0.1208496-1.4307938,0.3608704c-0.2407188,0.2416992-0.3610802,0.7205048-0.3610802,1.4385681v3.0744019
		h-0.838253v-7.8001556H36.7888336L36.7888336,171.5354004z"/>
	<path class="st1" d="M46.2646751,176.1320496l-0.004509-0.2558136c0-0.5901794-0.1025925-0.973175-0.3072777-1.1494751
		c-0.2044334-0.1775208-0.6450806-0.2650452-1.320446-0.2650452c-0.6816177,0-1.1222687,0.1035919-1.3249474,0.3110046
		c-0.2011871,0.2071686-0.3037758,0.6607056-0.3037758,1.3593292H46.2646751L46.2646751,176.1320496z M46.2646751,177.6832275
		h0.8597755l0.0072556,0.1991577c0,0.5687714-0.1814117,0.9670868-0.5452423,1.1939545
		c-0.3610802,0.227356-0.9981499,0.34021-1.9074783,0.34021c-1.0577087,0-1.7508392-0.183609-2.0828896-0.5510254
		c-0.3297958-0.3674469-0.4946938-1.1402283-0.4946938-2.3162079c0-1.0891418,0.1658974-1.8206024,0.4979477-2.1926575
		c0.3333015-0.3739929,0.9833908-0.5610046,1.9525223-0.5610046c1.0579567,0,1.7510834,0.1622009,2.0788841,0.485611
		c0.3290443,0.322937,0.4936943,1.0047913,0.4936943,2.0440979v0.4287109h-4.1322441
		c0,0.8608093,0.0978394,1.4079437,0.2920189,1.6438293c0.1931686,0.2356415,0.6470795,0.3538055,1.3597298,0.3538055
		c0.6776085,0,1.1157608-0.0571442,1.3176918-0.1687469c0.2026901-0.1135559,0.3030281-0.3552856,0.3030281-0.728302V177.6832275
		L46.2646751,177.6832275z"/>
	<path class="st1" d="M49.2904129,179.335556h-0.8385086v-5.4642639h0.8385086V179.335556L49.2904129,179.335556z
		 M49.2904129,172.43367h-0.8385086v-0.8982697h0.8385086V172.43367L49.2904129,172.43367z"/>
	<path class="st1" d="M50.7639999,173.8712921h0.8084793l-0.0250206,0.7426453l0.0250206,0.0167694
		c0.2559814-0.5566101,0.8928108-0.8350525,1.9092331-0.8350525c0.8202477,0,1.3749924,0.1369171,1.6652565,0.4102478
		c0.2910118,0.2745361,0.4356461,0.7988129,0.4356461,1.5747528v3.5549011h-0.8382607v-3.4877777v-0.2052307
		c0-0.4649506-0.0940819-0.7788849-0.2822533-0.9391327c-0.1881676-0.1617126-0.5514984-0.2416992-1.0872383-0.2416992
		c-1.1820679,0-1.7728539,0.5288696-1.7728539,1.5871582v3.2866821h-0.8380089V173.8712921L50.7639999,173.8712921z"/>
	<polygon class="st1" points="56.3853455,176.1259613 58.9196396,176.1259613 58.9196396,176.8668976 56.3680763,176.8668976 
		56.3853455,176.1259613 	"/>
	<path class="st1" d="M68.6932449,171.5354004v7.8001556h-0.9240875v-6.2407074v-0.4685822l0.0060043-0.2334442l0.0055084-0.2341766
		h-0.0232773l-0.0725555,0.1821442c-0.0360336,0.0904388-0.0595551,0.1505127-0.0720749,0.177002l-0.1558914,0.3657379
		l-2.7937775,6.4520264h-0.9260864l-2.79879-6.3776245l-0.1618919-0.3598785l-0.0725708-0.1831055
		c-0.0197678-0.040863-0.0445404-0.1009216-0.0720673-0.1777496h-0.0237656l0.0050011,0.2113037l0.0067558,0.2169189v0.4294281
		v6.2407074H59.695591v-7.8001556h1.6021996l2.1864853,5.0443268l0.3503151,0.8175354l0.1729088,0.405365l0.1684036,0.4063416
		h0.0250244l0.1688995-0.4063416c0.0818253-0.1930847,0.1386337-0.3280487,0.1676483-0.405365l0.3530731-0.8114624
		l2.1754684-5.0503998H68.6932449L68.6932449,171.5354004z"/>
	<path class="st1" d="M72.5747681,174.4617157c-0.7441788,0-1.2043457,0.1147614-1.383255,0.3452911
		c-0.1781616,0.2295685-0.2669907,0.8289642-0.2669907,1.7994537c0,0.9700165,0.088829,1.5701599,0.2669907,1.7987213
		c0.1789093,0.2312775,0.6390762,0.3465271,1.383255,0.3465271c0.7496719,0,1.2118454-0.1152496,1.3897629-0.3465271
		c0.178154-0.2285614,0.2672348-0.8287048,0.2672348-1.7987213c0-0.9704895-0.0890808-1.5698853-0.2672348-1.7994537
		C73.7866135,174.5764771,73.32444,174.4617157,72.5747681,174.4617157 M72.5747681,173.7956543
		c1.0612106,0,1.7513351,0.1763153,2.0661163,0.5259857c0.3167953,0.3504028,0.4754257,1.1117859,0.4754257,2.2848206
		c0,1.1728058-0.1586304,1.9344177-0.4754257,2.2843475c-0.3147812,0.3499146-1.0049057,0.5257416-2.0661163,0.5257416
		c-1.0564575,0-1.7445908-0.175827-2.0598755-0.5257416c-0.3167877-0.3499298-0.4751816-1.1115417-0.4751816-2.2843475
		c0-1.1730347,0.1583939-1.9344177,0.4751816-2.2848206C70.8301773,173.9719696,71.5183105,173.7956543,72.5747681,173.7956543"/>
	<path class="st1" d="M80.874527,175.3028259h-0.8417664c0-0.3776398-0.0808182-0.6134949-0.2427139-0.7044678
		c-0.161644-0.0911865-0.5795135-0.1366425-1.2513733-0.1366425c-0.6233139,0-1.0191727,0.0486298-1.1875839,0.1456604
		c-0.1681442,0.0974884-0.2527313,0.3299713-0.2527313,0.6986084c0,0.5610046,0.2822495,0.8527985,0.8465195,0.8795471
		l0.6771164,0.0342865l0.8585281,0.0398712c1.0389404,0.0496368,1.558403,0.5678101,1.558403,1.5529022
		c0,0.6127777-0.1708908,1.0322723-0.5159531,1.2622986c-0.3435745,0.2268677-0.9738922,0.3416595-1.8899689,0.3416595
		c-0.9406128,0-1.5876846-0.1082153-1.9402542-0.3260956c-0.3553238-0.2183685-0.5314789-0.617157-0.5314789-1.1963959
		l0.0047455-0.2988586h0.8712997l0.0080032,0.2579956c0,0.3577118,0.0958328,0.5979614,0.2875061,0.7175903
		c0.1914215,0.1208801,0.5692673,0.1809235,1.1322784,0.1809235c0.6916199,0,1.1455383-0.0637207,1.3629837-0.1894073
		c0.2176895-0.125,0.3267975-0.3873901,0.3267975-0.7876434c0-0.5746155-0.2737503-0.8618011-0.8215027-0.8618011
		c-1.2759018,0-2.1146622-0.1026154-2.5170364-0.3078308c-0.4011002-0.2057343-0.6022797-0.6312714-0.6022797-1.2803192
		c0-0.6118011,0.1583862-1.0200806,0.4766769-1.2229004c0.3185425-0.203537,0.9523621-0.3061523,1.9009628-0.3061523
		c1.5218811,0,2.2828217,0.4367371,2.2828217,1.3085022V175.3028259L80.874527,175.3028259z"/>
	<path class="st1" d="M86.2414017,176.1320496l-0.0052643-0.2558136c0-0.5901794-0.1020966-0.973175-0.3070221-1.1494751
		c-0.2044373-0.1775208-0.643837-0.2650452-1.3199463-0.2650452c-0.6818771,0-1.1220093,0.1035919-1.3249588,0.3110046
		c-0.2016678,0.2071686-0.3025131,0.6607056-0.3025131,1.3593292H86.2414017L86.2414017,176.1320496z M86.2414017,177.6832275
		h0.8600311l0.0059967,0.1991577c0,0.5687714-0.18116,0.9670868-0.5442352,1.1939545
		c-0.361084,0.227356-0.9989166,0.34021-1.9077454,0.34021c-1.0579453,0-1.7515869-0.183609-2.0826263-0.5510254
		c-0.3305511-0.3674469-0.4954529-1.1402283-0.4954529-2.3162079c0-1.0891418,0.1663971-1.8206024,0.4989548-2.1926575
		c0.333046-0.3739929,0.9836426-0.5610046,1.9515152-0.5610046c1.0584641,0,1.751091,0.1622009,2.0801315,0.485611
		c0.3280487,0.322937,0.4934616,1.0047913,0.4934616,2.0440979v0.4287109h-4.1325073
		c0,0.8608093,0.0976028,1.4079437,0.2915268,1.6438293c0.1936722,0.2356415,0.6473389,0.3538055,1.3604736,0.3538055
		c0.6768646,0,1.1152573-0.0571442,1.3181992-0.1687469c0.2009354-0.1135559,0.3022766-0.3552856,0.3022766-0.728302V177.6832275
		L86.2414017,177.6832275z"/>
	<polygon class="st1" points="89.2668839,179.335556 88.4283752,179.335556 88.4283752,171.5356293 89.2668839,171.5356293 
		89.2668839,179.335556 	"/>
	<polygon class="st1" points="90.0253296,176.1259613 92.5606232,176.1259613 92.5606232,176.8668976 90.009552,176.8668976 
		90.0253296,176.1259613 	"/>
	<polygon class="st1" points="93.9303665,172.2760925 93.9303665,174.9390564 98.0956345,174.9390564 98.0956345,175.6799927 
		93.9303665,175.6799927 93.9303665,178.5941467 98.2742996,178.5941467 98.2742996,179.335556 93.006279,179.335556 
		93.006279,171.5354004 98.2742996,171.5354004 98.2742996,172.2760925 93.9303665,172.2760925 	"/>
	<path class="st1" d="M100.2588577,179.335556h-0.8382645v-5.4642639h0.8382645V179.335556L100.2588577,179.335556z
		 M100.2588577,172.43367h-0.8382645v-0.8982697h0.8382645V172.43367L100.2588577,172.43367z"/>
	<path class="st1" d="M101.9571381,179.335556v-4.7984772h-0.8775406v-0.6657867h0.8775406v-0.8117065
		c0-1.065567,0.5797653-1.5998077,1.7368317-1.5998077c0.1728897,0,0.3743286,0.012146,0.6072922,0.0367126v0.6621552
		c-0.2722473-0.0221405-0.4721832-0.0333099-0.5955353-0.0333099c-0.6058121,0-0.9095764,0.2876587-0.9095764,0.860321v0.8856354
		h1.5051117v0.6657867h-1.5051117v4.7984772H101.9571381L101.9571381,179.335556z"/>
	<path class="st1" d="M108.9850082,176.1320496l-0.0047607-0.2558136c0-0.5901794-0.1025925-0.973175-0.3070221-1.1494751
		c-0.2046814-0.1775208-0.6455841-0.2650452-1.3204498-0.2650452c-0.6816254,0-1.1220093,0.1035919-1.3254547,0.3110046
		c-0.2014313,0.2071686-0.3040161,0.6607056-0.3040161,1.3593292H108.9850082L108.9850082,176.1320496z M108.9850082,177.6832275
		h0.8600235l0.0065155,0.1991577c0,0.5687714-0.1821747,0.9670868-0.5447464,1.1939545
		c-0.3615799,0.227356-0.9984055,0.34021-1.908226,0.34021c-1.0574646,0-1.7505875-0.183609-2.0826416-0.5510254
		c-0.3305511-0.3674469-0.4949493-1.1402283-0.4949493-2.3162079c0-1.0891418,0.1663971-1.8206024,0.4984589-2.1926575
		c0.333046-0.3739929,0.9836273-0.5610046,1.952507-0.5610046c1.0579529,0,1.7515869,0.1622009,2.0791397,0.485611
		c0.3285446,0.322937,0.4939423,1.0047913,0.4939423,2.0440979v0.4287109h-4.1324921
		c0,0.8608093,0.0965958,1.4079437,0.2920151,1.6438293c0.1931686,0.2356415,0.646843,0.3538055,1.3599777,0.3538055
		c0.6758728,0,1.1152573-0.0571442,1.3161926-0.1687469c0.2039413-0.1135559,0.3042831-0.3552856,0.3042831-0.728302V177.6832275
		L108.9850082,177.6832275z"/>
	<polygon class="st1" points="112.0094986,179.335556 111.1712418,179.335556 111.1712418,171.5356293 112.0094986,171.5356293 
		112.0094986,179.335556 	"/>
	<polygon class="st1" points="112.7704315,176.1259613 115.3037338,176.1259613 115.3037338,176.8668976 112.7526703,176.8668976 
		112.7704315,176.1259613 	"/>
	<polygon class="st1" points="117.0040207,171.5354004 117.0040207,178.5187531 121.2223358,178.5187531 121.2223358,179.335556 
		116.0794373,179.335556 116.0794373,171.5354004 117.0040207,171.5354004 	"/>
	<path class="st1" d="M124.2310638,176.6283569c-0.6443253,0-1.0629654,0.064682-1.2581329,0.194519
		c-0.1931839,0.1308441-0.2895203,0.4085388-0.2895203,0.8355408c0,0.442337,0.0950851,0.7346039,0.2865219,0.8776093
		c0.1931763,0.1444397,0.5827713,0.215683,1.1718063,0.215683c1.1828308,0,1.7756042-0.345047,1.7756042-1.0305481
		c0-0.4301605-0.115097-0.7207489-0.3445511-0.869339C125.3430786,176.7020264,124.8959274,176.6283569,124.2310638,176.6283569
		 M122.8808441,175.4039917h-0.8355103c0-0.6344299,0.1523895-1.0619202,0.4536591-1.2802887
		c0.302536-0.2183533,0.8935699-0.3280487,1.7743683-0.3280487c0.956604,0,1.6026993,0.1332703,1.9377518,0.4022064
		c0.3368073,0.2684631,0.5052109,0.7786407,0.5052109,1.5307617v3.6069336h-0.8382645l0.0660553-0.5892029l-0.0182648-0.0065613
		c-0.3205414,0.452301-0.9718781,0.6767578-1.9525146,0.6767578c-1.450058,0-2.1747131-0.5544434-2.1747131-1.6654816
		c0-0.659256,0.1611404-1.1151886,0.4866943-1.3663635c0.3250351-0.252655,0.9108124-0.3786316,1.7603378-0.3786316
		c1.0089035,0,1.6142044,0.1904144,1.8136368,0.5690308l0.0187683-0.0065765v-0.6621552
		c0-0.6237183-0.0910797-1.0266571-0.2709961-1.212204c-0.179657-0.1838226-0.5742645-0.276001-1.1830597-0.276001
		c-1.0329437,0-1.5496674,0.2745514-1.5496674,0.8250885C122.8743362,175.2700043,122.8753433,175.3235016,122.8808441,175.4039917"
		/>
	<path class="st1" d="M128.2709808,173.8712921h0.8087311l-0.0245209,0.7426453l0.0245209,0.0167694
		c0.255722-0.5566101,0.8925629-0.8350525,1.9092407-0.8350525c0.8204803,0,1.3747406,0.1369171,1.6652527,0.4102478
		c0.2902527,0.2745361,0.4358978,0.7988129,0.4358978,1.5747528v3.5549011h-0.8382721v-3.4877777v-0.2052307
		c0-0.4649506-0.094574-0.7788849-0.2827454-0.9391327c-0.1881714-0.1617126-0.5512543-0.2416992-1.0874939-0.2416992
		c-1.1813049,0-1.7723389,0.5288696-1.7723389,1.5871582v3.2866821h-0.8382721V173.8712921L128.2709808,173.8712921z"/>
	<path class="st1" d="M137.0128937,174.4189301c-0.6510925,0-1.0854797,0.1378632-1.3001556,0.4114227
		c-0.214447,0.274292-0.3218079,0.828476-0.3218079,1.6649933c0,0.9213562,0.1058502,1.5261383,0.3197937,1.8162384
		c0.2117004,0.2896118,0.6530762,0.4340515,1.3214417,0.4340515c0.7279053,0,1.2023468-0.1444397,1.4210358-0.4340515
		c0.218689-0.2901001,0.328064-0.920166,0.328064-1.8911438c0-0.7849426-0.1211243-1.3157959-0.3630981-1.5900879
		C138.1774597,174.5567932,137.7075195,174.4189301,137.0128937,174.4189301 M139.6708221,171.4668274v7.8677673h-0.8825684
		l0.0433044-0.7146759l-0.0237885-0.0060883c-0.2787323,0.534729-0.9258423,0.8027191-1.940506,0.8027191
		c-0.9280853,0-1.559906-0.2057343-1.8989716-0.6157227c-0.3377991-0.411911-0.5086975-1.1784058-0.5086975-2.2998962
		c0-1.0322571,0.1708984-1.7491302,0.512207-2.152298c0.3408051-0.4004974,0.9526062-0.6016083,1.8334198-0.6016083
		c1.0992432,0,1.75383,0.2587433,1.9637756,0.7732849l0.0192566-0.0114288v-3.0420532H139.6708221L139.6708221,171.4668274z"/>
	<path class="st1" d="M33.4087753,161.8842316h-2.0658226v-8.9994965h2.0658226v-1.4247131h-2.0658226v-3.6898651h-1.5918922
		v3.6898651h-1.4217644v1.4247131h1.4217644v9.0481262c0,0.9174652,0.4536114,1.3760986,1.3610039,1.3760986h2.296711V161.8842316
		L33.4087753,161.8842316z M41.1623039,152.7142944c0-0.8846588-0.4456558-1.3274689-1.3367157-1.3274689
		c-0.4296379,0-0.9683762,0.0488739-1.6162186,0.1461334c-0.5429878,0.0894928-1.0817261,0.1748352-1.6162109,0.2558289v-0.3287659
		H34.976944v11.848938h1.6162148v-10.3023987l2.9771957-0.0975037v2.4477539h1.5919495V152.7142944L41.1623039,152.7142944z
		 M49.4017639,152.8361053c0-0.9172211-0.453907-1.3760834-1.3612366-1.3760834h-3.8885155
		c-0.9073257,0-1.3609848,0.4588623-1.3609848,1.3760834v1.9971619h1.5676689v-2.0214691h3.4753952v3.5680237h-3.803688
		c-0.9155884,0-1.3729973,0.4547272-1.3729973,1.3639374v4.3230896c0,0.8768768,0.4413948,1.3152924,1.3244476,1.3152924
		c0.477932,0,1.1137581-0.0488586,1.9079781-0.1461334c0.6398277-0.0812225,1.2799072-0.1663208,1.9199905-0.2558136v0.3287659
		h1.5919418V152.8361053L49.4017639,152.8361053z M44.224823,161.9085388v-4.2622833h3.6092682v4.1893463L44.224823,161.9085388
		L44.224823,161.9085388z M58.3215981,151.460022h-1.5919456v10.3023682l-3.5847473,0.0975189V151.460022h-1.5919418v10.6068268
		c0,0.8768768,0.4376488,1.3152924,1.312439,1.3152924c0.5104637,0,1.1545486-0.0488586,1.932251-0.1461334
		c0.6398277-0.0812225,1.2839127-0.1663208,1.9319992-0.2558136v0.3287659h1.5919456V151.460022L58.3215981,151.460022z
		 M72.3453064,152.7142944c0-0.8846588-0.4454117-1.3274689-1.3367157-1.3274689c-0.4536591,0-1.1220169,0.0569-2.0050659,0.1707001
		c-0.6723557,0.0972595-1.3487244,0.1906433-2.0293427,0.279892c-0.2349625-0.3000793-0.5995407-0.450592-1.093483-0.450592
		c-0.5024567,0-1.1382828,0.0488739-1.9079819,0.1461334c-0.6318207,0.0894928-1.2636452,0.1748352-1.8957176,0.2558289v-0.3287659
		h-1.6162148v11.848938h1.6162148v-10.3023987l3.524189-0.0975037V163.30896h1.6039581v-10.3023987l3.523941-0.0975037V163.30896
		h1.6162186V152.7142944L72.3453064,152.7142944z M81.2653961,152.7142944c0-0.8846588-0.4496765-1.3274689-1.3489914-1.3274689
		c-0.4616623,0-1.0977325,0.0529938-1.9077225,0.1585388c-0.6400757,0.0812073-1.2801514,0.1624298-1.9199829,0.2434235v-0.3287659
		h-1.6162186v16.3427277h1.6162186V163.30896h2.6611557c0.7211533,0,1.3204498-0.2414703,1.7986298-0.7246399
		c0.4779358-0.4827118,0.7169113-1.0898895,0.7169113-1.8203888V152.7142944L81.2653961,152.7142944z M78.3247223,161.8842316
		h-2.2360229v-8.8776703l3.5604706-0.0975037v7.6112366C79.6491699,161.4297333,79.2075119,161.8842316,78.3247223,161.8842316
		L78.3247223,161.8842316L78.3247223,161.8842316z M87.8278275,144.2507629h-2.515274
		c-0.9075623,0-1.3609772,0.458847-1.3609772,1.3760986v5.8331604H82.578331v1.4247131h1.3732452V163.30896h1.5916901v-10.4242249
		h2.0173264v-1.4247131h-2.0173264v-5.7845306h2.2845612V144.2507629L87.8278275,144.2507629z M95.4597549,152.8361053
		c0-0.9172211-0.4536667-1.3760834-1.3609848-1.3760834h-3.8885345c-0.9075699,0-1.3609848,0.4588623-1.3609848,1.3760834v1.9971619
		h1.5674362v-2.0214691h3.4753952v3.5680237h-3.8034439c-0.9155884,0-1.3732452,0.4547272-1.3732452,1.3639374v4.3230896
		c0,0.8768768,0.4416504,1.3152924,1.3246994,1.3152924c0.4779358,0,1.1137466-0.0488586,1.9077148-0.1461334
		c0.6398392-0.0812225,1.2799225-0.1663208,1.9199982-0.2558136v0.3287659h1.5919495V152.8361053L95.4597549,152.8361053z
		 M90.2830658,161.9085388v-4.2622833h3.6090164v4.1893463L90.2830658,161.9085388L90.2830658,161.9085388z M94.6212463,148.573822
		h-1.786377v1.8388519h1.786377V148.573822L94.6212463,148.573822z M91.486145,148.573822h-1.786377v1.8388519h1.786377V148.573822
		L91.486145,148.573822z M104.3312836,144.2507629h-1.6042023v7.209259h-2.6611557
		c-0.7211533,0-1.320694,0.2416992-1.7986298,0.7246399s-0.7169037,1.0898895-0.7169037,1.8206177v6.9291382
		c0,0.6981354,0.2106934,1.2807617,0.6318283,1.747406c0.4211197,0.4668884,0.9761353,0.7003174,1.6650085,0.7003174
		c0.1861649,0,1.1460419-0.1339874,2.8798523-0.401947v0.3287659h1.6042023V144.2507629L104.3312836,144.2507629z
		 M100.4910583,161.9571838c-0.8910599,0-1.3367081-0.4544983-1.3367081-1.3639374v-6.3323975
		c0-0.9172211,0.4456482-1.3761139,1.3367081-1.3761139h2.2360229v8.9508667
		C101.4469299,161.9168243,100.7017441,161.9571838,100.4910583,161.9571838L100.4910583,161.9571838L100.4910583,161.9571838z
		 M113.056694,159.2417145h-1.5919495v2.6425171h-3.3537827v-8.9994965h3.3537827v2.3137817h1.5919495v-2.3624115
		c0-0.9172211-0.4536591-1.3760834-1.3609848-1.3760834h-3.8399734c-0.9073334,0-1.3609848,0.4588623-1.3609848,1.3760834v9.096756
		c0,0.9174652,0.4536514,1.3760986,1.3609848,1.3760986h3.8399734c0.9073257,0,1.3609848-0.4586334,1.3609848-1.3760986V159.2417145
		L113.056694,159.2417145z M121.9767838,152.7142944c0-0.8846588-0.4496613-1.3274689-1.3489761-1.3274689
		c-0.4616776,0-1.0977478,0.0529938-1.9077377,0.1585388c-0.6400757,0.0812073-1.2801514,0.1624298-1.9199829,0.2434235v-7.5380249
		h-1.6162109v19.058197h1.6162109v-10.3023987l3.5604782-0.0975037V163.30896h1.6162186V152.7142944L121.9767838,152.7142944z
		 M130.702179,159.789566h-1.5674133v2.1676178h-3.4756546v-4.2866058h4.4963303l0.5467377-0.5721741v-4.2622986
		c0-0.9172211-0.4536591-1.3760834-1.3609772-1.3760834h-3.8885193c-0.9075775,0-1.3609848,0.4588623-1.3609848,1.3760834v9.096756
		c0,0.9174652,0.4534073,1.3760986,1.3609848,1.3760986h3.8885193c0.9073181,0,1.3609772-0.4586334,1.3609772-1.3760986V159.789566
		L130.702179,159.789566z M125.659111,156.3798218v-3.5680237h3.4756546v3.5680237H125.659111L125.659111,156.3798218z
		 M139.6708221,152.7142944c0-0.8846588-0.4496613-1.3274689-1.3487244-1.3274689
		c-0.5024719,0-1.1422882,0.0488739-1.9202576,0.1461334c-0.6398163,0.0894928-1.2759094,0.1748352-1.9077301,0.2558289v-0.3287659
		h-1.6162109v11.848938h1.6162109v-10.3023987l3.5604706-0.0975037V163.30896h1.6162415V152.7142944L139.6708221,152.7142944z"/>
	<path class="st2" d="M142.8979797,71.1708679C132.3454285,49.9020157,109.9748993,35.183445,84.0001221,35.183445
		c-36.1159859,0-65.3937378,28.3818016-65.3937378,63.3929329c0,6.2813187,0.9759369,12.3357697,2.7312813,18.0646133
		c19.7458134-4.9232178,59.1310043-3.6448822,60.2354965-11.9046326c1.3409729-10.0028-32.1213455-16.0027771-20.0771866-20.0048676
		C73.1135025,80.8735962,128.177887,75.1617813,142.8979797,71.1708679L142.8979797,71.1708679z M24.7744751,125.3228836
		c2.3108387,4.7997055,5.1711578,9.2990646,8.5918884,13.3532028c21.0584526-0.6220245,47.350029-2.6277008,35.5375748-8.9328461
		C58.3989182,124.1367035,38.4205627,125.1293259,24.7744751,125.3228836L24.7744751,125.3228836z M135.2705688,137.8505249
		c8.8187408-10.803566,14.1230469-24.4276505,14.1230469-39.274147c0-7.9596863-1.5789337-15.5458527-4.3419342-22.5647202
		c-19.8309708,6.5130615-59.1776123,6.0182114-56.7849503,11.3864365
		c2.6756668,6.0031357,45.5057297,13.3364182,41.4918442,18.6722946
		c-4.0141373,5.3353958-49.5226212,7.3332825-45.5089798,12.6696472
		C87.4797745,123.0280914,123.8987732,130.0593567,135.2705688,137.8505249L135.2705688,137.8505249z"/>
</g>
<g>
	<path class="st3" d="M20.5190659,174.8471527h3.0683022c0.8068943,0,1.3580685-0.1166687,1.6514053-0.3516235
		c0.2916965-0.2332916,0.4398174-0.6753235,0.4398174-1.3219147c0-0.8115234-0.1099815-1.3389587-0.3258972-1.5836792
		c-0.218214-0.2450256-0.6856861-0.3678131-1.3996296-0.3678131h-3.4339981V174.8471527L20.5190659,174.8471527z
		 M19.4591827,179.3236084v-8.9515228h4.4806442c1.0095444,0,1.721508,0.1903229,2.1347332,0.5709686
		c0.4128838,0.3800812,0.6189518,1.041748,0.6189518,1.97995c0,0.8271332-0.1119404,1.4037018-0.3368721,1.7296295
		c-0.2258835,0.3256836-0.6529198,0.5377502-1.2857094,0.6329193v0.0198212
		c0.9962769,0.0700531,1.4939594,0.6463165,1.4939594,1.7293549v2.2888794h-1.0610085v-2.058075
		c0-1.0448303-0.4751072-1.5675201-1.4278526-1.5675201h-0.350193h-3.2067699v3.6255951H19.4591827L19.4591827,179.3236084z"/>
	<path class="st3" d="M29.1674061,170.3720856v3.4556427l0.0201035,0.0128326
		c0.2449512-0.5823975,0.9243755-0.874588,2.0422993-0.874588c1.6554871,0,2.4830856,0.6976624,2.4830856,2.0941162v0.2561646
		v4.0073547h-0.9625626v-4.0073547v-0.1769257c0-0.9384766-0.508564-1.4089813-1.526556-1.4089813
		c-0.8184147,0-1.3671799,0.1386871-1.6419888,0.4141235c-0.2762508,0.2773895-0.414381,0.8268738-0.414381,1.6509399v3.5281982
		h-0.9619865v-8.9515228H29.1674061L29.1674061,170.3720856z"/>
	<path class="st3" d="M40.0419464,175.6472321l-0.0051689-0.2935791c0-0.6772919-0.1177368-1.116806-0.3526344-1.3191376
		c-0.2346115-0.2037354-0.7402992-0.3041687-1.5153542-0.3041687c-0.7822304,0-1.2879219,0.1188812-1.5205193,0.3569031
		c-0.2308846,0.2377625-0.3486176,0.7582397-0.3486176,1.5599823H40.0419464L40.0419464,175.6472321z M40.0419464,177.4273682
		h0.9866867l0.0083313,0.2285614c0,0.6527252-0.2081909,1.1098328-0.6257286,1.3701935
		c-0.4143753,0.2609253-1.1454849,0.3904266-2.1890335,0.3904266c-1.2138367,0-2.0092773-0.2107086-2.3903389-0.63237
		c-0.378479-0.4216614-0.5677185-1.3085175-0.5677185-2.6580811c0-1.2499084,0.1903877-2.0893402,0.5714493-2.5163116
		c0.3825035-0.4291992,1.1285515-0.6438141,2.2407303-0.6438141c1.214119,0,2.0095558,0.186142,2.385746,0.5572968
		c0.3776093,0.3706055,0.5665627,1.1530914,0.5665627,2.3458099v0.4919891h-4.7421913
		c0,0.9878845,0.1122818,1.6157684,0.3351212,1.8864746c0.2216835,0.2704163,0.7425957,0.4060364,1.5604362,0.4060364
		c0.7776299,0,1.2804527-0.0655975,1.5121918-0.1936646c0.2326088-0.1303253,0.3477554-0.4077301,0.3477554-0.8358002V177.4273682
		L40.0419464,177.4273682z"/>
	<path class="st3" d="M43.5143089,179.3236084h-0.9622803v-6.2708282h0.9622803V179.3236084L43.5143089,179.3236084z
		 M43.5143089,171.4029541h-0.9622803v-1.0308685h0.9622803V171.4029541L43.5143089,171.4029541z"/>
	<path class="st3" d="M45.2054062,173.0527802h0.9278183l-0.0287132,0.8522644l0.0287132,0.0192413
		c0.293766-0.6387634,1.0245972-0.958313,2.1910477-0.958313c0.9413223,0,1.5779533,0.157135,1.9110641,0.4707947
		c0.3339653,0.3150635,0.4999466,0.9167175,0.4999466,1.8072052v4.0796356h-0.9619942v-4.0026093v-0.2355194
		c0-0.5335846-0.1079674-0.8938446-0.3239174-1.0777435c-0.2159386-0.1855927-0.6329041-0.2773895-1.2477188-0.2773895
		c-1.3565521,0-2.0345383,0.6069336-2.0345383,1.8214417v3.7718201h-0.9617081V173.0527802L45.2054062,173.0527802z"/>
	<polygon class="st3" points="51.6565018,175.6402435 54.5648727,175.6402435 54.5648727,176.4905548 51.6366882,176.4905548 
		51.6565018,175.6402435 	"/>
	<path class="st3" d="M65.7811356,170.3720856v8.9515228h-1.0604935v-7.1618958v-0.5377502l0.006897-0.2678986l0.0063171-0.2687378
		h-0.0267105l-0.0832672,0.2090302c-0.0413589,0.1037903-0.0683441,0.1727295-0.0827103,0.203125l-0.1789017,0.4197388
		l-3.2061615,7.4043884h-1.0627823l-3.2119102-7.3190155l-0.185791-0.4129944l-0.0832825-0.2101288
		c-0.022686-0.0469055-0.0511169-0.1158295-0.0827026-0.20401h-0.0272789l0.0057411,0.2425079l0.0077553,0.2489319v0.4928131
		v7.1618958h-1.0604897v-8.9515228h1.8386955l2.5092239,5.7889099l0.4020271,0.9382019l0.1984291,0.4651947l0.193264,0.4663239
		h0.028717l0.1938286-0.4663239c0.0939026-0.2215729,0.1590958-0.3764496,0.1923981-0.4651947l0.4051857-0.9312439
		l2.4965858-5.7958679H65.7811356L65.7811356,170.3720856z"/>
	<path class="st3" d="M70.2355957,173.7303467c-0.8540268,0-1.3821106,0.1316986-1.5874329,0.3962555
		c-0.2044601,0.2634583-0.3064041,0.9513245-0.3064041,2.0650787c0,1.1131897,0.101944,1.8019257,0.3064041,2.064209
		c0.2053223,0.2654266,0.7334061,0.3976898,1.5874329,0.3976898c0.8603363,0,1.3907318-0.1322632,1.594902-0.3976898
		c0.2044525-0.2622833,0.3066864-0.9510193,0.3066864-2.064209c0-1.1137543-0.1022339-1.8016205-0.3066864-2.0650787
		C71.6263275,173.8620453,71.095932,173.7303467,70.2355957,173.7303467 M70.2355957,172.9659729
		c1.2178497,0,2.0098419,0.2023315,2.3710938,0.6036224c0.3635483,0.4021301,0.5456085,1.2758942,0.5456085,2.6220856
		c0,1.3459167-0.1820602,2.2199402-0.5456085,2.621521c-0.3612518,0.4015808-1.153244,0.6033478-2.3710938,0.6033478
		c-1.2124023,0-2.0020981-0.201767-2.3639221-0.6033478c-0.3635483-0.4015808-0.5453186-1.2756042-0.5453186-2.621521
		c0-1.3461914,0.1817703-2.2199554,0.5453186-2.6220856C68.2334976,173.1683044,69.0231934,172.9659729,70.2355957,172.9659729"/>
	<path class="st3" d="M79.7604675,174.6956177h-0.9660187c0-0.4333801-0.0927582-0.7040558-0.2785416-0.8084564
		c-0.1855011-0.1046448-0.665062-0.1568146-1.4360886-0.1568146c-0.7153168,0-1.1696091,0.0558014-1.3628845,0.16716
		c-0.1929626,0.1118774-0.2900314,0.3786774-0.2900314,0.8017273c0,0.6438141,0.3239136,0.9786835,0.9714737,1.0093842
		l0.7770615,0.0393372l0.9852524,0.0457611c1.1922989,0.0569611,1.7884369,0.6516266,1.7884369,1.7821198
		c0,0.7032318-0.1961212,1.1846313-0.5921173,1.4486237c-0.3942871,0.2603455-1.1176453,0.3920898-2.1689377,0.3920898
		c-1.0794525,0-1.8220444-0.1241913-2.2266541-0.3742371c-0.4077606-0.2505951-0.6099319-0.708252-0.6099319-1.3729858
		l0.005455-0.3429718h0.9999084l0.0091782,0.2960815c0,0.4105072,0.1099854,0.6862183,0.3299484,0.8235016
		c0.2196808,0.1387177,0.6532974,0.2076416,1.2994156,0.2076416c0.7937088,0,1.3146286-0.0731201,1.5641708-0.2173767
		c0.2498169-0.1434479,0.3750305-0.4445648,0.3750305-0.9039154c0-0.6594238-0.3141556-0.9889832-0.9427567-0.9889832
		c-1.464241,0-2.4268036-0.1177673-2.8885727-0.3532867c-0.4603119-0.2360992-0.691185-0.7244568-0.691185-1.4692993
		c0-0.7021027,0.1817627-1.1706543,0.5470428-1.4033966c0.3655624-0.2335815,1.0929337-0.3513489,2.1815567-0.3513489
		c1.746521,0,2.6197891,0.5012054,2.6197891,1.5016479V174.6956177L79.7604675,174.6956177z"/>
	<path class="st3" d="M85.9195251,175.6472321l-0.0060425-0.2935791c0-0.6772919-0.1171646-1.116806-0.3523407-1.3191376
		c-0.2346115-0.2037354-0.7388687-0.3041687-1.5147781-0.3041687c-0.7825317,0-1.2876282,0.1188812-1.5205307,0.3569031
		c-0.2314453,0.2377625-0.3471756,0.7582397-0.3471756,1.5599823H85.9195251L85.9195251,175.6472321z M85.9195251,177.4273682
		h0.9869766l0.0068817,0.2285614c0,0.6527252-0.207901,1.1098328-0.6245651,1.3701935
		c-0.4143829,0.2609253-1.1463623,0.3904266-2.1893387,0.3904266c-1.2141113,0-2.0101395-0.2107086-2.3900452-0.63237
		c-0.3793411-0.4216614-0.5685806-1.3085175-0.5685806-2.6580811c0-1.2499084,0.1909561-2.0893402,0.5726089-2.5163116
		c0.3822021-0.4291992,1.12883-0.6438141,2.2395706-0.6438141c1.2146988,0,2.0095596,0.186142,2.3871689,0.5572968
		c0.3764725,0.3706055,0.5662994,1.1530914,0.5662994,2.3458099v0.4919891h-4.7424927
		c0,0.9878845,0.1120071,1.6157684,0.3345566,1.8864746c0.2222595,0.2704163,0.7428894,0.4060364,1.5612946,0.4060364
		c0.7767639,0,1.2798691-0.0655975,1.5127716-0.1936646c0.2305908-0.1303253,0.3468933-0.4077301,0.3468933-0.8358002V177.4273682
		L85.9195251,177.4273682z"/>
	<polygon class="st3" points="89.3915863,179.3236084 88.4293137,179.3236084 88.4293137,170.3723602 89.3915863,170.3723602 
		89.3915863,179.3236084 	"/>
	<polygon class="st3" points="90.2619858,175.6402435 93.1715088,175.6402435 93.1715088,176.4905548 90.2438812,176.4905548 
		90.2619858,175.6402435 	"/>
	<polygon class="st3" points="94.7434311,171.2221222 94.7434311,174.2781525 99.5235214,174.2781525 99.5235214,175.1284485 
		94.7434311,175.1284485 94.7434311,178.4727478 99.7285614,178.4727478 99.7285614,179.3236084 93.6829453,179.3236084 
		93.6829453,170.3720856 99.7285614,170.3720856 99.7285614,171.2221222 94.7434311,171.2221222 	"/>
	<path class="st3" d="M102.0060501,179.3236084h-0.9619904v-6.2708282h0.9619904V179.3236084L102.0060501,179.3236084z
		 M102.0060501,171.4029541h-0.9619904v-1.0308685h0.9619904V171.4029541L102.0060501,171.4029541z"/>
	<path class="st3" d="M103.9550171,179.3236084v-5.5067749h-1.0070724v-0.7640533h1.0070724v-0.9315338
		c0-1.2228546,0.6653442-1.8359375,1.9931946-1.8359375c0.19841,0,0.4295883,0.0139313,0.6969299,0.0421295v0.7598877
		c-0.3124237-0.0254059-0.5418777-0.0382233-0.6834335-0.0382233c-0.6952362,0-1.0438385,0.3301239-1.0438385,0.9873199v1.0163574
		h1.727272v0.7640533h-1.727272v5.5067749H103.9550171L103.9550171,179.3236084z"/>
	<path class="st3" d="M112.0202484,175.6472321l-0.0054626-0.2935791c0-0.6772919-0.1177368-1.116806-0.3523407-1.3191376
		c-0.2349014-0.2037354-0.7408752-0.3041687-1.515358-0.3041687c-0.7822342,0-1.2876282,0.1188812-1.5211029,0.3569031
		c-0.231163,0.2377625-0.3488922,0.7582397-0.3488922,1.5599823H112.0202484L112.0202484,175.6472321z M112.0202484,177.4273682
		h0.986969l0.0074768,0.2285614c0,0.6527252-0.2090607,1.1098328-0.6251526,1.3701935
		c-0.4149475,0.2609253-1.1457825,0.3904266-2.1898956,0.3904266c-1.2135544,0-2.0089874-0.2107086-2.3900528-0.63237
		c-0.3793411-0.4216614-0.5680084-1.3085175-0.5680084-2.6580811c0-1.2499084,0.1909561-2.0893402,0.5720291-2.5163116
		c0.3822098-0.4291992,1.12883-0.6438141,2.2407227-0.6438141c1.2141113,0,2.0101318,0.186142,2.3860321,0.5572968
		c0.3770447,0.3706055,0.5668488,1.1530914,0.5668488,2.3458099v0.4919891H108.26474
		c0,0.9878845,0.1108551,1.6157684,0.3351212,1.8864746c0.2216797,0.2704163,0.7423172,0.4060364,1.5607224,0.4060364
		c0.7756271,0,1.2798691-0.0655975,1.5104675-0.1936646c0.2340469-0.1303253,0.3491974-0.4077301,0.3491974-0.8358002V177.4273682
		L112.0202484,177.4273682z"/>
	<polygon class="st3" points="115.4911804,179.3236084 114.5291824,179.3236084 114.5291824,170.3723602 115.4911804,170.3723602 
		115.4911804,179.3236084 	"/>
	<polygon class="st3" points="116.3644257,175.6402435 119.2716675,175.6402435 119.2716675,176.4905548 116.3440475,176.4905548 
		116.3644257,175.6402435 	"/>
	<polygon class="st3" points="121.2229309,170.3720856 121.2229309,178.3862305 126.0638962,178.3862305 126.0638962,179.3236084 
		120.1618652,179.3236084 120.1618652,170.3720856 121.2229309,170.3720856 	"/>
	<path class="st3" d="M129.5167236,176.2167969c-0.7394257,0-1.2198486,0.074234-1.4438324,0.2232361
		c-0.2217026,0.1501465-0.3322601,0.4688416-0.3322601,0.9588776c0,0.5076141,0.1091232,0.8430328,0.3288116,1.0071411
		c0.2216949,0.1657562,0.6687927,0.2475281,1.3447723,0.2475281c1.3574219,0,2.0377045-0.3959808,2.0377045-1.1826782
		c0-0.4936523-0.1320801-0.8271332-0.3954163-0.9976501C130.7928772,176.3013458,130.2797241,176.2167969,129.5167236,176.2167969
		 M127.9672089,174.8117065h-0.9588394c0-0.7280731,0.1748886-1.2186737,0.5206223-1.4692688
		c0.3471909-0.2505798,1.0254669-0.3764648,2.0362701-0.3764648c1.0978241,0,1.8392792,0.1529388,2.2237854,0.4615784
		c0.3865204,0.3080902,0.5797882,0.8935547,0.5797882,1.7566986v4.1393585h-0.9620056l0.0758057-0.676178l-0.0209503-0.0075226
		c-0.3678589,0.5190582-1.1153412,0.7766418-2.2407227,0.7766418c-1.6641006,0-2.4957199-0.6362762-2.4957199-1.9113159
		c0-0.7565613,0.1849289-1.2798004,0.5585327-1.5680542c0.3730164-0.2899475,1.0452499-0.4345245,2.0201797-0.4345245
		c1.1578217,0,1.852478,0.2185211,2.0813446,0.6530304l0.0215302-0.0075531v-0.759903
		c0-0.7157745-0.1045227-1.1781921-0.3109894-1.3911133c-0.2061768-0.210968-0.6590271-0.3167419-1.3576965-0.3167419
		c-1.1854095,0-1.7784042,0.3150787-1.7784042,0.9468689C127.9597397,174.657959,127.9608917,174.7193298,127.9672089,174.8117065"
		/>
	<path class="st3" d="M134.1529694,173.0527802h0.9281006l-0.0281372,0.8522644l0.0281372,0.0192413
		c0.2934723-0.6387634,1.0243073-0.958313,2.1910553-0.958313c0.9415894,0,1.5776672,0.157135,1.9110565,0.4707947
		c0.3330994,0.3150635,0.5002441,0.9167175,0.5002441,1.8072052v4.0796356h-0.9620056v-4.0026093v-0.2355194
		c0-0.5335846-0.1085358-0.8938446-0.3244781-1.0777435c-0.2159424-0.1855927-0.6326294-0.2773895-1.2480164-0.2773895
		c-1.3556824,0-2.0339661,0.6069336-2.0339661,1.8214417v3.7718201h-0.9619904V173.0527802L134.1529694,173.0527802z"/>
	<path class="st3" d="M144.185257,173.6812439c-0.7472076,0-1.2457123,0.1582031-1.4920807,0.4721527
		c-0.2460938,0.3147888-0.3693085,0.9507751-0.3693085,1.9107513c0,1.057373,0.1214752,1.7514038,0.3669891,2.0843353
		c0.2429504,0.3323669,0.7494965,0.4981232,1.51651,0.4981232c0.8353577,0,1.3798218-0.1657562,1.6307983-0.4981232
		c0.2509613-0.3329315,0.3764801-1.0559845,0.3764801-2.1702881c0-0.9008179-0.1390076-1.5100098-0.416687-1.8247986
		C145.5217133,173.839447,144.9824066,173.6812439,144.185257,173.6812439 M147.2355042,170.293396v9.0290985h-1.0128326
		l0.0496826-0.8201752l-0.0272827-0.0069733c-0.3198853,0.6136475-1.0625,0.9212036-2.226944,0.9212036
		c-1.0650787,0-1.7901611-0.2360992-2.1792755-0.706604c-0.3876495-0.4727173-0.583786-1.3523407-0.583786-2.6393738
		c0-1.1846313,0.1961365-2.0073242,0.5877991-2.469986c0.3911285-0.4596405,1.0932312-0.6904144,2.1040497-0.6904144
		c1.2615051,0,2.0127106,0.2969208,2.2536469,0.8874207l0.02211-0.0131073v-3.4910889H147.2355042L147.2355042,170.293396z"/>
	<path class="st3" d="M25.2884274,159.2963409H22.917675v-10.3278809h2.3707523v-1.635025H22.917675v-4.2345123h-1.8268661
		v4.2345123h-1.6316261v1.635025h1.6316261v10.3836823c0,1.0529022,0.5205688,1.5792084,1.5618973,1.5792084h2.6357212V159.2963409
		L25.2884274,159.2963409z M34.1864319,148.7728424c0-1.0152435-0.5114403-1.523407-1.5340233-1.523407
		c-0.4930573,0-1.1113167,0.0560913-1.854784,0.1677094c-0.6231365,0.1027069-1.241396,0.2006378-1.8547745,0.2935791v-0.3772888
		h-1.8547802v13.5979156h1.8547802v-11.8230896l3.4166508-0.1118927v2.8090515h1.826931V148.7728424L34.1864319,148.7728424z
		 M43.6420937,148.9126587c0-1.0526276-0.5209045-1.5792236-1.5621605-1.5792236h-4.4624939
		c-1.0412483,0-1.5618706,0.5265961-1.5618706,1.5792236v2.2919464h1.7990646v-2.3198547h3.9883919v4.0946808h-4.3651428
		c-1.0507317,0-1.5756607,0.5218658-1.5756607,1.5652771v4.9611969c0,1.0063171,0.5065498,1.5094452,1.5199471,1.5094452
		c0.5484772,0,1.2781563-0.056076,2.1896095-0.1677094c0.734272-0.0932007,1.4688301-0.1908722,2.203392-0.2935791v0.3772888
		h1.8269234V148.9126587L43.6420937,148.9126587z M37.7010002,159.324234v-4.8914185h4.142025v4.8077087L37.7010002,159.324234
		L37.7010002,159.324234z M53.8785629,147.3334351h-1.826931v11.8230743l-4.113884,0.1119232v-11.9349976h-1.8269234v12.1724701
		c0,1.0063171,0.5022507,1.5094452,1.5061684,1.5094452c0.5858078,0,1.3249664-0.056076,2.2174644-0.1677094
		c0.734272-0.0932007,1.4734268-0.1908722,2.2171745-0.2935791v0.3772888h1.826931V147.3334351L53.8785629,147.3334351z
		 M69.9722672,148.7728424c0-1.0152435-0.5111542-1.523407-1.5340271-1.523407
		c-0.5206146,0-1.2876282,0.0652924-2.3010254,0.1958923c-0.7716064,0.1116333-1.5478058,0.2187958-2.3288841,0.3212128
		c-0.2696457-0.3443756-0.6880379-0.5171051-1.2548981-0.5171051c-0.5766182,0-1.3062935,0.0560913-2.1896095,0.1677094
		c-0.7250824,0.1027069-1.4501686,0.2006378-2.1755371,0.2935791v-0.3772888h-1.8547821v13.5979156h1.8547821v-11.8230896
		l4.0443878-0.1118927v11.9349823h1.8407059v-11.8230896l4.0441055-0.1118927v11.9349823h1.8547821V148.7728424
		L69.9722672,148.7728424z M80.2090225,148.7728424c0-1.0152435-0.5160446-1.523407-1.5481033-1.523407
		c-0.5298157,0-1.2597733,0.0608215-2.1893234,0.1819458c-0.7345581,0.0932007-1.4691086,0.1864014-2.2033844,0.2793427v-0.3772888
		h-1.8547821v18.7550354h1.8547821v-5.1571198h3.0539627c0.8275986,0,1.515358-0.2770996,2.0641174-0.8315887
		c0.5484848-0.5539551,0.822731-1.2507629,0.822731-2.0890808V148.7728424L80.2090225,148.7728424z M76.8342896,159.2963409
		h-2.5660782v-10.1880798l4.0860214-0.1118927v8.7346954C78.3542328,158.774765,77.8473892,159.2963409,76.8342896,159.2963409
		L76.8342896,159.2963409L76.8342896,159.2963409z M87.7401199,139.0600433h-2.8865433
		c-1.0415344,0-1.5618744,0.5265808-1.5618744,1.5792236v6.6941681h-1.575943v1.635025h1.575943v11.9628906h1.8266373v-11.9628906
		h2.3151016v-1.635025h-2.3151016v-6.6383667h2.6217804V139.0600433L87.7401199,139.0600433z M96.4985657,148.9126587
		c0-1.0526276-0.5206299-1.5792236-1.5618668-1.5792236h-4.4625092c-1.0415344,0-1.5618744,0.5265961-1.5618744,1.5792236v2.2919464
		h1.79879v-2.3198547h3.9883957v4.0946808h-4.3648605c-1.0507355,0-1.5759506,0.5218658-1.5759506,1.5652771v4.9611969
		c0,1.0063171,0.5068436,1.5094452,1.5202408,1.5094452c0.5484772,0,1.2781448-0.056076,2.1893082-0.1677094
		c0.7342834-0.0932007,1.4688492-0.1908722,2.2034073-0.2935791v0.3772888h1.8269196V148.9126587L96.4985657,148.9126587z
		 M90.5577621,159.324234v-4.8914185h4.1417389v4.8077087L90.5577621,159.324234L90.5577621,159.324234z M95.536293,144.0212097
		h-2.0500565v2.1102905h2.0500565V144.0212097L95.536293,144.0212097z M91.9384232,144.0212097h-2.0500488v2.1102905h2.0500488
		V144.0212097L91.9384232,144.0212097z M106.6796036,139.0600433h-1.8409958v8.2733917h-3.0539627
		c-0.8275986,0-1.5156403,0.2773895-2.0641174,0.8316193c-0.5484848,0.5542145-0.8227234,1.2507629-0.8227234,2.0893402v7.9519196
		c0,0.8011932,0.2417908,1.4698181,0.72509,2.0053406c0.4832764,0.5357971,1.1202164,0.8036957,1.9107742,0.8036957
		c0.2136383,0,1.3152008-0.1537628,3.3049393-0.4612885v0.3772888h1.8409958V139.0600433L106.6796036,139.0600433z
		 M102.2725296,159.3800507c-1.022583,0-1.5340118-0.5215759-1.5340118-1.5652618v-7.2670898
		c0-1.0526276,0.5114288-1.5792389,1.5340118-1.5792389h2.5660782v10.2720642
		C103.3694916,159.3337402,102.5143204,159.3800507,102.2725296,159.3800507L102.2725296,159.3800507L102.2725296,159.3800507z
		 M116.6929398,156.2637634h-1.8269272v3.0325775h-3.8488235v-10.3278809h3.8488235v2.655304h1.8269272v-2.7111053
		c0-1.0526276-0.5206223-1.5792236-1.5618744-1.5792236h-4.4067764c-1.0412598,0-1.5618744,0.5265961-1.5618744,1.5792236
		v10.4394836c0,1.0529022,0.5206146,1.5792084,1.5618744,1.5792084h4.4067764c1.0412521,0,1.5618744-0.5263062,1.5618744-1.5792084
		V156.2637634L116.6929398,156.2637634z M126.9297028,148.7728424c0-1.0152435-0.516037-1.523407-1.5480957-1.523407
		c-0.5298233,0-1.2597809,0.0608215-2.1893311,0.1819458c-0.7345581,0.0932007-1.4691086,0.1864014-2.2033844,0.2793427v-8.6506805
		h-1.8547745v21.8713074h1.8547745v-11.8230896l4.0860291-0.1118927v11.9349823h1.8547821V148.7728424L126.9297028,148.7728424z
		 M136.9430237,156.8924866h-1.7987823v2.4875641h-3.988678v-4.9193268h5.1600342l0.6274261-0.6566315v-4.8914337
		c0-1.0526276-0.5206146-1.5792236-1.5618591-1.5792236h-4.4624939c-1.0415497,0-1.5618744,0.5265961-1.5618744,1.5792236
		v10.4394836c0,1.0529022,0.5203247,1.5792084,1.5618744,1.5792084h4.4624939c1.0412445,0,1.5618591-0.5263062,1.5618591-1.5792084
		V156.8924866L136.9430237,156.8924866z M131.1555634,152.9794312v-4.0946808h3.988678v4.0946808H131.1555634
		L131.1555634,152.9794312z M147.2355042,148.7728424c0-1.0152435-0.516037-1.523407-1.5478058-1.523407
		c-0.5766449,0-1.3108978,0.0560913-2.2037048,0.1677094c-0.7342529,0.1027069-1.4642334,0.2006378-2.1893158,0.2935791v-0.3772888
		h-1.8547821v13.5979156h1.8547821v-11.8230896l4.0860138-0.1118927v11.9349823h1.8548126V148.7728424L147.2355042,148.7728424z"/>
	<path class="st4" d="M150.9390259,55.1930389c-12.110199-24.408289-37.7827682-41.2994232-67.5916138-41.2994232
		c-41.4469566,0-75.0463104,32.5711555-75.0463104,72.7501755c0,7.2084961,1.1199913,14.1566238,3.1344366,20.7310791
		c22.6604347-5.6499176,67.8591614-4.1828918,69.1266861-13.6618347
		c1.5389023-11.4792862-36.86269-18.3649063-23.0407219-22.9577255
		C70.8538513,66.3279572,134.0461426,59.773037,150.9390259,55.1930389L150.9390259,55.1930389z M15.3796425,117.3382797
		c2.6519375,5.5081635,5.9344597,10.671669,9.8601112,15.3242111c24.166832-0.7138367,54.3392258-3.0155487,40.7831726-10.2513809
		C53.9672928,115.977005,31.0399914,117.1161499,15.3796425,117.3382797L15.3796425,117.3382797z M142.1857452,131.7150879
		c10.1204529-12.3982468,16.2077026-28.0333481,16.2077026-45.0712967c0-9.1345901-1.8119812-17.8405228-4.9828186-25.8954277
		c-22.7581787,7.4744377-67.9126587,6.9065437-65.1668167,13.0671577
		c3.07061,6.8892365,52.2226944,15.3049622,47.6163254,21.4284515c-4.6066437,6.1229401-56.8325043,8.4157257-52.2264252,14.5397797
		C87.3406906,114.7047501,129.1353912,122.7738876,142.1857452,131.7150879L142.1857452,131.7150879z"/>
</g>
<g class="st0">
	<defs>
		<rect id="SVGID_1_" x="-0.0329648" y="6.8085108" width="165.9315033" height="175.0919189"/>
	</defs>
	<clipPath id="SVGID_2_" class="st5">
		<use xlink:href="#SVGID_1_"  style="overflow:visible;"/>
	</clipPath>
	<rect x="26.202137" y="14.2765961" class="st6" width="114.6108932" height="134.9420929"/>
	<path class="st7" d="M25.919548,136.8866425c0,0,59.003891,3.5688477,38.376091-7.542923
		c-20.6268692-11.1099319-74.4454575,1.1088562-62.6611938-10.0005264
		c11.7832413-11.1085129,75.1332932-6.6619492,76.6063385-17.7780609
		c1.4759216-11.1117783-35.3562012-17.7766037-22.0989418-22.2221375
		c13.2589684-4.4436874,78.0820618-11.1080322,91.3436127-15.5521584
		c13.2572479-4.4460754,16.2024231-6.6686172,16.2024231-6.6686172s8.8407593-0.7420998-8.8383179,9.6299629
		c-17.6790771,10.3691864-72.1857986,8.8854218-69.2411194,15.5530701
		c2.944725,6.6686249,50.0877686,14.8147812,45.6698151,20.7417374c-4.418457,5.9264755-54.5095444,8.1462021-50.0918198,14.0740891
		c4.4220047,5.9241333,65.2567368,16.5996857,59.3654404,27.7105408c-5.8955383,11.1122589-2.9018555,7.3773956-2.9018555,7.3773956
		L25.919548,156.7492523V136.8866425z"/>
	<rect x="25.919548" y="143.5933228" class="st7" width="115.1156616" height="38.3071136"/>
	<polygon class="st8" points="35.7792435,149.091156 32.4891853,149.091156 32.4891853,165.7950439 30.6020279,165.7950439 
		30.6020279,149.091156 27.2864971,149.091156 27.2864971,147.6625977 35.7792435,147.6625977 	"/>
	<path class="st8" d="M47.0730095,165.7950439h-1.9889679l-3.9531898-9.722229l0.2582779-0.3249207h3.3635674v-6.6567383h-4.8461113
		v16.7038879h-1.8869629v-18.1324463h7.0439606c0.463604,0,0.8432274,0.1260681,1.1364822,0.3763123
		c0.292572,0.2502289,0.4397888,0.5736847,0.4397888,0.9694824v6.7704315c0,0.897644-0.6869125,1.3453217-2.0591164,1.3453217
		c-0.1358185,0-0.333252-0.0061798-0.5963058-0.0176239c-0.2614441-0.01091-0.4509888-0.0171051-0.569458-0.0171051
		C44.6392403,159.9831848,45.8589783,162.884613,47.0730095,165.7950439"/>
	<path class="st8" d="M55.6049728,160.3380737l-1.8597794-9.8287659l-1.8886185,9.8287659H55.6049728z M58.4835472,165.7950439
		h-1.8866692l-0.7461967-4.0293274h-4.2395782l-0.7525711,4.0293274h-1.8103371v-0.0466156l3.7997932-18.136734h1.8617325
		L58.4835472,165.7950439z"/>
	<path class="st8" d="M69.8372803,164.4497223c0,0.3972168-0.1481857,0.7211609-0.4433899,0.9690094
		c-0.2961273,0.2521362-0.6736069,0.3763123-1.1326828,0.3763123h-5.6715088c-0.4638023,0-0.8434258-0.124176-1.1359978-0.3763123
		c-0.2933044-0.2478485-0.4405174-0.5717926-0.4405174-0.9690094v-16.7871246h1.8871574v16.7043152h5.0497322v-16.7043152h1.887207
		V164.4497223z"/>
	<path class="st8" d="M83.7555313,165.7950439h-1.785347v-11.4823914c0-0.1622162,0.0637665-0.6379395,0.1902771-1.426178
		l-3.4813004,11.1997986h-0.3793869l-3.4810562-11.1997986c0.1255798,0.7953949,0.1893463,1.2696686,0.1893463,1.426178v11.4823914
		h-1.785347v-18.1324463h1.7596741l3.4527588,11.7901459c0.0175858,0.062851,0.0366364,0.2364655,0.053978,0.5218811
		c0-0.1151123,0.0171432-0.2887268,0.0542145-0.5218811l3.4525146-11.7901459h1.7596741V165.7950439z"/>
	<path class="st8" d="M93.659996,157.1754913 M93.659996,149.091156h-4.6416092v8.0839081h4.6416092V149.091156z
		 M95.5471573,157.2578278c0,0.3924255-0.1484375,0.7159271-0.4429092,0.9680786
		c-0.2963715,0.2516479-0.6745758,0.3777161-1.133606,0.3777161h-4.9522552v7.1914215h-1.8876495v-18.1324463h6.8399048
		c0.4590302,0,0.8372345,0.1260681,1.133606,0.3763123c0.2944717,0.2502289,0.4429092,0.5736847,0.4429092,0.9694824V157.2578278z"
		/>
	<polygon class="st8" points="105.3749847,149.091156 100.4279938,149.091156 100.4279938,155.9510345 104.992981,155.9510345 
		104.992981,157.4047852 100.4279938,157.4047852 100.4279938,165.7950439 98.5403519,165.7950439 98.5403519,147.6625977 
		105.3749847,147.6625977 	"/>
	<path class="st8" d="M113.7099991,160.3380737l-1.8610001-9.8287659l-1.8880768,9.8287659H113.7099991z M116.588089,165.7950439
		h-1.886673l-0.7463837-4.0293274h-4.2396317l-0.7520828,4.0293274h-1.8110657v-0.0466156l3.8000412-18.136734h1.8614807
		L116.588089,165.7950439z"/>
	<path class="st8" d="M126.0035172,162.3527527v-11.2692566c0-0.5946503-0.2197952-1.0760803-0.6612854-1.4424133
		c-0.4395447-0.366272-1.0089569-0.5499268-1.7087708-0.5499268h-2.6278458v15.2757568h2.5194092
		c0.7345047,0,1.3324585-0.1783905,1.7915344-0.5384827C125.773735,163.4697113,126.0035172,162.9768677,126.0035172,162.3527527
		 M127.8901825,162.5163879c0,0.9547729-0.3691483,1.739212-1.1074448,2.3543091
		c-0.7392807,0.6165314-1.6716995,0.9243469-2.7958145,0.9243469h-4.8689499v-18.1324463h4.8689499
		c1.133667,0,2.0675049,0.3078156,2.8024826,0.9248199c0.7335281,0.615097,1.1007767,1.4009552,1.1007767,2.3543243V162.5163879z"/>
	<polygon class="st8" points="138.1790009,165.7950439 131.1916962,165.7950439 131.1916962,147.6625977 138.1029053,147.6625977 
		138.1029053,149.091156 133.0788422,149.091156 133.0788422,155.8492279 137.6438293,155.8492279 137.6438293,157.302536 
		133.0788422,157.302536 133.0788422,164.3669128 138.1790009,164.3669128 	"/>
	<path class="st8" d="M30.7944469,175.4397125h2.582201c0.6790657,0,1.1429138-0.1032257,1.3897972-0.3111267
		c0.2454643-0.2064514,0.370121-0.5974731,0.370121-1.1693115c0-0.7178497-0.092556-1.1845245-0.2742577-1.4009552
		c-0.1836472-0.2169189-0.5770569-0.3254089-1.1778908-0.3254089h-2.8899708V175.4397125z M29.9024544,179.3995819v-7.9187622
		h3.7708092c0.8496132,0,1.4487877,0.1684113,1.7965508,0.5052185c0.3474731,0.336319,0.5208931,0.921463,0.5208931,1.7515869
		c0,0.7316284-0.0942116,1.2416077-0.2835121,1.529892c-0.1900787,0.2882843-0.5494881,0.4757385-1.0820198,0.559906v0.0175934
		c0.8384514,0.0618591,1.2572937,0.5718384,1.2572937,1.5299377v2.0246277h-0.8929176V177.57901
		c0-0.9243317-0.3998413-1.3867188-1.201664-1.3867188h-0.2947197h-2.6987209v3.2072906H29.9024544z"/>
	<path class="st8" d="M38.07267,171.4808197v3.0569153l0.0169029,0.0114441
		c0.2062035-0.5151825,0.7780533-0.7735138,1.7187576-0.7735138c1.393158,0,2.0898056,0.6170044,2.0898056,1.852417v0.2264709
		v3.5450287h-0.8101044v-3.5450287v-0.1565094c0-0.8301239-0.4281425-1.2463837-1.2846718-1.2463837
		c-0.6888542,0-1.1505585,0.1227112-1.382,0.366272c-0.2323608,0.2454681-0.34869,0.7316895-0.34869,1.4604797v3.12117h-0.8096619
		v-7.9187622H38.07267z"/>
	<path class="st8" d="M47.2245102,176.1475677l-0.0044785-0.2597351c0-0.5993652-0.0989914-0.9880524-0.2966194-1.1669312
		c-0.1974373-0.1802826-0.6231918-0.2692413-1.2754173-0.2692413c-0.658165,0-1.0839195,0.1051331-1.2797012,0.3158569
		c-0.194313,0.2102966-0.2932549,0.6707916-0.2932549,1.3800507H47.2245102z M47.2245102,177.722229h0.830368l0.0069199,0.2021637
		c0,0.5774994-0.1753235,0.9818726-0.5266418,1.2121429c-0.3486938,0.2306976-0.9640388,0.3453674-1.8421974,0.3453674
		c-1.0216141,0-1.690937-0.1865234-2.01157-0.5594635c-0.3184891-0.3729553-0.4778786-1.1574402-0.4778786-2.3514557
		c0-1.1056061,0.1603127-1.8481903,0.4809456-2.2259064c0.3218498-0.3796234,0.9497643-0.5694122,1.885746-0.5694122
		c1.021862,0,1.691185,0.1645966,2.0077705,0.4928284c0.3178062,0.3278046,0.4769058,1.0199738,0.4769058,2.0751038v0.435257
		h-3.9910431c0,0.8739166,0.0944557,1.4295349,0.2821503,1.6688232c0.1864738,0.2392731,0.6248474,0.3591614,1.3132172,0.3591614
		c0.6543159,0,1.0774918-0.0580139,1.2725372-0.1712341c0.1957359-0.1151581,0.2927704-0.3606262,0.2927704-0.7392731V177.722229z"
		/>
	<path class="st8" d="M50.1466331,179.3995819h-0.8099098v-5.5473328h0.8099098V179.3995819z M50.1466331,172.392746h-0.8099098
		v-0.9119263h0.8099098V172.392746z"/>
	<path class="st8" d="M51.5697479,173.8522491h0.7808762l-0.0240173,0.7540283l0.0240173,0.0171051
		c0.2473679-0.5651245,0.8622246-0.8477173,1.8440933-0.8477173c0.7920799,0,1.3279762,0.1388855,1.6081772,0.4162598
		c0.2811241,0.2787323,0.4207878,0.8110809,0.4207878,1.5988617v3.6087952h-0.8094711v-3.540741v-0.2083893
		c0-0.4718933-0.091095-0.7906189-0.2727966-0.9533234c-0.1817513-0.1641235-0.5325851-0.2454681-1.0499191-0.2454681
		c-1.1416969,0-1.712326,0.5370636-1.712326,1.6112518v3.3366699h-0.8094215V173.8522491z"/>
	<polygon class="st8" points="56.9988594,176.1413879 59.4466591,176.1413879 59.4466591,176.8935242 56.9822006,176.8935242 	"/>
	<path class="st8" d="M68.8858109,171.4808197v7.9187622h-0.8924255v-6.3355713v-0.4757385l0.0059357-0.2368927l0.0052109-0.2378693
		h-0.0223541l-0.0701447,0.1850739c-0.0349808,0.0917664-0.0575867,0.1526642-0.0697174,0.1797943l-0.1505203,0.371048
		l-2.698288,6.5501556h-0.8943253l-2.7030563-6.4745026l-0.1562767-0.3653564l-0.0701485-0.1859741
		c-0.0190468-0.0414124-0.0430641-0.1023102-0.0697098-0.1803436h-0.0228462l0.004776,0.2145844l0.0064278,0.2202301v0.435791
		v6.3355713H60.195919v-7.9187622h1.5474815l2.1117249,5.121048l0.3382187,0.8301239l0.1669922,0.4115448l0.1627045,0.4124451
		h0.0242538l0.1629486-0.4124451c0.079155-0.1960297,0.1339111-0.3330078,0.161972-0.4115448l0.341095-0.8239288l2.1010056-5.127243
		H68.8858109z"/>
	<path class="st8" d="M72.634697,174.4516602c-0.7188187,0-1.1631317,0.1165314-1.3360138,0.3505859
		c-0.1720047,0.2330933-0.257843,0.8415375-0.257843,1.826767c0,0.9847412,0.0858383,1.5941467,0.257843,1.8262634
		c0.1728821,0.2345581,0.6171951,0.3515625,1.3360138,0.3515625c0.7240753,0,1.1702881-0.1170044,1.342247-0.3515625
		c0.1719589-0.2321167,0.2580872-0.8415222,0.2580872-1.8262634c0-0.9852295-0.0861282-1.5936737-0.2580872-1.826767
		C73.804985,174.5681915,73.3587723,174.4516602,72.634697,174.4516602 M72.634697,173.7756653
		c1.0249329,0,1.6914291,0.1788788,1.9953995,0.5337524c0.3058701,0.3558502,0.4593201,1.128891,0.4593201,2.3195953
		c0,1.1906891-0.15345,1.9637756-0.4593201,2.3191376c-0.3039703,0.3553162-0.9704666,0.5337524-1.9953995,0.5337524
		c-1.020401,0-1.6849976-0.1784363-1.9894562-0.5337524c-0.3058701-0.3553619-0.4588318-1.1284485-0.4588318-2.3191376
		c0-1.1907043,0.1529617-1.9637451,0.4588318-2.3195953C70.9496994,173.9545441,71.614296,173.7756653,72.634697,173.7756653"/>
	<path class="st8" d="M80.6505356,175.3055573h-0.812973c0-0.3834229-0.0780411-0.6226959-0.2343063-0.7150116
		c-0.1562805-0.0927582-0.5596771-0.1388855-1.20858-0.1388855c-0.602005,0-0.9844589,0.0494537-1.1471558,0.1479492
		c-0.1622162,0.098938-0.2440567,0.3348999-0.2440567,0.709259c0,0.569458,0.2727966,0.8658295,0.817749,0.8929749
		l0.6538849,0.0346832l0.8291473,0.0404816c1.0033035,0.050415,1.5051956,0.5765228,1.5051956,1.5765076
		c0,0.6222229-0.1650848,1.0479736-0.4983368,1.2815552c-0.3317795,0.2302704-0.9407043,0.3468323-1.8252945,0.3468323
		c-0.9086456,0-1.533493-0.1098938-1.8740997-0.3311005c-0.3429947-0.2216949-0.5132904-0.6265564-0.5132904-1.2145233
		l0.0047226-0.3034821h0.8413315l0.007843,0.2620697c0,0.3630219,0.0925522,0.6070251,0.277565,0.728363
		c0.1850662,0.1227112,0.5499268,0.183609,1.0937119,0.183609c0.6678619,0,1.1062393-0.0646973,1.3162918-0.1921692
		c0.2102432-0.1270447,0.3156128-0.3934174,0.3156128-0.7996826c0-0.583252-0.2644653-0.8748474-0.7934952-0.8748474
		c-1.2321091,0-2.0422134-0.1042023-2.4308929-0.3125458c-0.3872299-0.2088318-0.581543-0.6407776-0.581543-1.2996674
		c0-0.6212921,0.1529083-1.0356598,0.4602432-1.2416229c0.3077698-0.2064362,0.9198074-0.3106384,1.8360138-0.3106384
		c1.4697266,0,2.2047119,0.4433441,2.2047119,1.3282166V175.3055573z"/>
	<path class="st8" d="M85.8339386,176.1475677l-0.0052109-0.2597351c0-0.5993652-0.0984955-0.9880524-0.2963715-1.1669312
		c-0.1974335-0.1802826-0.6217728-0.2692413-1.2749252-0.2692413c-0.6584167,0-1.0836792,0.1051331-1.2796555,0.3158569
		c-0.1946106,0.2102966-0.2921371,0.6707916-0.2921371,1.3800507H85.8339386z M85.8339386,177.722229h0.8306122l0.0056992,0.2021637
		c0,0.5774994-0.1750183,0.9818726-0.5256653,1.2121429c-0.3486862,0.2306976-0.9647217,0.3453674-1.8424377,0.3453674
		c-1.0218658,0-1.6916733-0.1865234-2.0113297-0.5594635c-0.3192215-0.3729553-0.4785614-1.1574402-0.4785614-2.3514557
		c0-1.1056061,0.1608047-1.8481903,0.4818726-2.2259064c0.3216095-0.3796234,0.9500122-0.5694122,1.884819-0.5694122
		c1.0223007,0,1.691185,0.1645966,2.0089417,0.4928284c0.3168335,0.3278046,0.4766617,1.0199738,0.4766617,2.0751038v0.435257
		H82.673317c0,0.8739166,0.094162,1.4295349,0.2816086,1.6688232c0.1869659,0.2392731,0.6250916,0.3591614,1.3139038,0.3591614
		c0.6536331,0,1.0770493-0.0580139,1.2730255-0.1712341c0.1941223-0.1151581,0.2920837-0.3606262,0.2920837-0.7392731V177.722229z"
		/>
	<rect x="87.9461517" y="171.4812622" class="st8" width="0.8096658" height="7.9183183"/>
	<polygon class="st8" points="89.4884186,176.1413879 91.9369507,176.1413879 91.9369507,176.8935242 89.473175,176.8935242 	"/>
	<polygon class="st8" points="93.2599106,172.2329102 93.2599106,174.9364166 97.2825699,174.9364166 97.2825699,175.6884918 
		93.2599106,175.6884918 93.2599106,178.6470032 97.4552612,178.6470032 97.4552612,179.3995819 92.3674316,179.3995819 
		92.3674316,171.4808197 97.4552612,171.4808197 97.4552612,172.2329102 	"/>
	<path class="st8" d="M99.3718872,179.3995819h-0.8096695v-5.5473328h0.8096695V179.3995819z M99.3718872,172.392746h-0.8096695
		v-0.9119263h0.8096695V172.392746z"/>
	<path class="st8" d="M101.0121689,179.3995819v-4.8713379h-0.8477173v-0.6759949h0.8477173v-0.8239441
		c0-1.0817719,0.559906-1.6240997,1.6773911-1.6240997c0.1669922,0,0.361557,0.0123596,0.5865631,0.0371094v0.6721954
		c-0.2630539-0.0223541-0.4561996-0.0337982-0.5751572-0.0337982c-0.5850983,0-0.8786469,0.2921295-0.8786469,0.8734283v0.8991089
		h1.453804v0.6759949h-1.453804v4.8713379H101.0121689z"/>
	<path class="st8" d="M107.7996979,176.1475677l-0.0047226-0.2597351c0-0.5993652-0.0989838-0.9880524-0.2963715-1.1669312
		c-0.1979218-0.1802826-0.6236801-0.2692413-1.2754135-0.2692413c-0.6584167,0-1.0836792,0.1051331-1.2801437,0.3158569
		c-0.1945648,0.2102966-0.2935486,0.6707916-0.2935486,1.3800507H107.7996979z M107.7996979,177.722229h0.8306122
		l0.0061874,0.2021637c0,0.5774994-0.1760025,0.9818726-0.5261459,1.2121429
		c-0.3491821,0.2306976-0.9642868,0.3453674-1.8429337,0.3453674c-1.0213776,0-1.6906967-0.1865234-2.0113297-0.5594635
		c-0.3192139-0.3729553-0.4780731-1.1574402-0.4780731-2.3514557c0-1.1056061,0.160759-1.8481903,0.4814377-2.2259064
		c0.3215561-0.3796234,0.9499588-0.5694122,1.8856964-0.5694122c1.0218582,0,1.6916656,0.1645966,2.0080109,0.4928284
		c0.3173218,0.3278046,0.47715,1.0199738,0.47715,2.0751038v0.435257h-3.9912796
		c0,0.8739166,0.0932846,1.4295349,0.2820969,1.6688232c0.1865234,0.2392731,0.624649,0.3591614,1.3134613,0.3591614
		c0.65271,0,1.0770493-0.0580139,1.2711258-0.1712341c0.1969452-0.1151581,0.2939835-0.3606262,0.2939835-0.7392731V177.722229z"/>
	<rect x="109.9109421" y="171.4812622" class="st8" width="0.8096658" height="7.9183183"/>
	<polygon class="st8" points="111.4555893,176.1413879 113.9022217,176.1413879 113.9022217,176.8935242 111.4384918,176.8935242 	
		"/>
	<polygon class="st8" points="115.5444031,171.4808197 115.5444031,178.5704346 119.6184082,178.5704346 119.6184082,179.3995819 
		114.6514816,179.3995819 114.6514816,171.4808197 	"/>
	<path class="st8" d="M122.5241089,176.6513672c-0.622261,0-1.0265884,0.0656586-1.2149582,0.1974335
		c-0.1865234,0.1326904-0.2797623,0.4147949-0.2797623,0.8482056c0,0.4490814,0.0918274,0.7458954,0.276886,0.8910065
		c0.1864777,0.1465302,0.5627899,0.2188263,1.1317139,0.2188263c1.1422272,0,1.7149506-0.3501129,1.7149506-1.0460815
		c0-0.4367065-0.1113052-0.7316742-0.3330002-0.8824921C123.5982971,176.7260437,123.1663513,176.6513672,122.5241089,176.6513672
		 M121.2201462,175.4083405h-0.8067856c0-0.6441345,0.146965-1.0779724,0.4381256-1.2996674
		c0.2920837-0.2216949,0.8629608-0.3330078,1.7135468-0.3330078c0.9238434,0,1.547966,0.1350861,1.8714676,0.4081726
		c0.3253555,0.2725525,0.48806,0.7906189,0.48806,1.5541534v3.6615906h-0.8096619l0.0637665-0.5979614l-0.0176392-0.0066681
		c-0.3096695,0.4590759-0.9385605,0.6869507-1.8857422,0.6869507c-1.4005127,0-2.1002808-0.5627747-2.1002808-1.6906891
		c0-0.6693726,0.1555939-1.1322479,0.4700394-1.3872223c0.3139572-0.256424,0.8795624-0.3843842,1.7001953-0.3843842
		c0.9742661,0,1.5589218,0.1931458,1.7515869,0.5775452l0.018074-0.0066833v-0.6721954
		c0-0.6331787-0.0879822-1.0422668-0.2616425-1.2306366c-0.1736069-0.1865234-0.5547028-0.2802124-1.1426697-0.2802124
		c-0.9975586,0-1.4966202,0.2787476-1.4966202,0.8377228C121.2139664,175.2722931,121.2149353,175.3265076,121.2201462,175.4083405"
		/>
	<path class="st8" d="M126.4259567,173.8522491h0.7811203l-0.023819,0.7540283l0.023819,0.0171051
		c0.2468872-0.5651245,0.8619843-0.8477173,1.8438568-0.8477173c0.7925568,0,1.3277283,0.1388855,1.6084137,0.4162598
		c0.2801971,0.2787323,0.42099,0.8110809,0.42099,1.5988617v3.6087952h-0.8096771v-3.540741v-0.2083893
		c0-0.4718933-0.0913391-0.7906189-0.2730408-0.9533234c-0.1817474-0.1641235-0.5323334-0.2454681-1.0503998-0.2454681
		c-1.14077,0-1.7115936,0.5370636-1.7115936,1.6112518v3.3366699h-0.8096695V173.8522491z"/>
	<path class="st8" d="M134.8689728,174.4083557c-0.628891,0-1.0485077,0.1398621-1.2558899,0.4176636
		c-0.2069244,0.2783051-0.3106384,0.841095-0.3106384,1.6902618c0,0.935257,0.1022491,1.5493774,0.3087463,1.8438568
		c0.2045441,0.2939758,0.6307831,0.440506,1.2763367,0.440506c0.7030792,0,1.1612244-0.1465302,1.3724518-0.440506
		c0.2112274-0.2944794,0.3167877-0.9342804,0.3167877-1.9199982c0-0.7967987-0.1170197-1.3358154-0.3506012-1.6141205
		C135.9935608,174.5482178,135.5397034,174.4083557,134.8689728,174.4083557 M137.4359283,171.4113617v7.9872894h-0.8524933
		l0.0419006-0.7254944l-0.0228577-0.0061798c-0.2692871,0.5428162-0.8943787,0.8149261-1.8743439,0.8149261
		c-0.896225,0-1.5065613-0.2088776-1.8338623-0.6250916c-0.3263245-0.4181519-0.4914246-1.1964417-0.4914246-2.3348389
		c0-1.0480042,0.1651001-1.7758331,0.4947357-2.1849823c0.3292084-0.4067078,0.9200592-0.6108246,1.7706299-0.6108246
		c1.0618134,0,1.6940155,0.262619,1.8966675,0.7849731l0.0185547-0.0114441v-3.0883331H137.4359283z"/>
</g>
</svg>
