<?xml version="1.0" encoding="utf-8"?>
<!-- Generator: Adobe Illustrator 24.1.1, SVG Export Plug-In . SVG Version: 6.00 Build 0)  -->
<svg version="1.1" id="Ebene_1" xmlns="http://www.w3.org/2000/svg" xmlns:xlink="http://www.w3.org/1999/xlink" x="0px" y="0px"
	 viewBox="0 0 340.6283264 359.4325867" style="enable-background:new 0 0 340.6283264 359.4325867;" xml:space="preserve">
<style type="text/css">
	.st0{clip-path:url(#SVGID_2_);fill:#EE7203;}
	.st1{clip-path:url(#SVGID_2_);fill:#FFFFFF;}
	.st2{clip-path:url(#SVGID_2_);fill:#006130;}
</style>
<g>
	<defs>
		<rect id="SVGID_1_" x="0.0004279" width="340.6278992" height="359.4325867"/>
	</defs>
	<clipPath id="SVGID_2_">
		<use xlink:href="#SVGID_1_"  style="overflow:visible;"/>
	</clipPath>
	<rect x="53.8564262" class="st0" width="235.2757874" height="292.342804"/>
	<path class="st1" d="M53.2763214,267.0272827c0,0,121.1244965,7.3262024,78.7792969-15.4842834
		c-42.3432922-22.8067017-152.823288,2.2762909-128.6322937-20.5293121
		c24.1889-22.8037872,154.2352905-13.6757965,157.259201-36.4951935
		c3.0298004-22.8105011-72.5800018-36.4922028-45.3652039-45.618103
		c27.2182922-9.1221008,160.2886047-22.802803,187.512207-31.9258041
		c27.2147827-9.1269989,33.2606812-13.6894913,33.2606812-13.6894913s18.1484985-1.5233994-18.1434937,19.7686005
		c-36.2919922,21.2861023-148.1846008,18.2402039-142.1396942,31.9277039
		c6.0449982,13.6894989,102.8213043,30.4120941,93.7519989,42.5791016
		c-9.0703125,12.1660004-111.898407,16.7226868-102.8295898,28.8915863
		c9.0775909,12.1612091,133.9604797,34.0762024,121.8666992,56.8847961
		c-12.1025085,22.8115234-5.9570007,15.1445007-5.9570007,15.1445007l-229.3628082,9.3203125V267.0272827z"/>
	<rect x="53.2763214" y="280.7948914" class="st1" width="236.3119965" height="78.6376953"/>
	<polygon class="st2" points="73.5165253,292.0809937 66.7626266,292.0809937 66.7626266,326.3710938 62.8886223,326.3710938 
		62.8886223,292.0809937 56.082428,292.0809937 56.082428,289.148407 73.5165253,289.148407 	"/>
	<path class="st2" d="M96.7006226,326.3710938h-4.0830002l-8.1151962-19.9580078l0.5301971-0.6669922h6.904808v-13.6651001
		h-9.9482117v34.2901001h-3.8735962V289.148407h14.4599991c0.9516983,0,1.7310028,0.2587891,2.3330002,0.7724915
		c0.6006012,0.5136719,0.9028015,1.1776733,0.9028015,1.9902039v13.898468c0,1.8427124-1.4101028,2.7617188-4.2269974,2.7617188
		c-0.278801,0-0.6841049-0.0126953-1.2241058-0.0361938C89.8236237,308.5126953,89.4345245,308.5,89.1913223,308.5
		C91.7045212,314.4403992,94.2084274,320.3964844,96.7006226,326.3710938"/>
	<path class="st2" d="M114.2152252,315.1688843l-3.8177948-20.1766968l-3.8769989,20.1766968H114.2152252z M120.1244278,326.3710938
		h-3.8730011l-1.5318069-8.2715149h-8.7030945l-1.5449066,8.2715149h-3.7162933v-0.0957031l7.800293-37.2315063h3.8218079
		L120.1244278,326.3710938z"/>
	<path class="st2" d="M143.4316254,323.6094055c0,0.8153992-0.3041992,1.4803772-0.910202,1.9891663
		c-0.6078949,0.5176086-1.3827972,0.772522-2.3251953,0.772522h-11.6426086c-0.952095,0-1.7313995-0.2549133-2.3320007-0.772522
		c-0.6020966-0.5087891-0.9042969-1.1737671-0.9042969-1.9891663V289.148407h3.8739929v34.2909851h10.3662109V289.148407h3.8740997
		V323.6094055z"/>
	<path class="st2" d="M172.0033264,326.3710938h-3.6650085v-23.5712891c0-0.3330078,0.1309052-1.3096008,0.3906097-2.9277039
		l-7.1464996,22.9911804h-0.7788086l-7.1459961-22.9911804c0.2577972,1.632782,0.3887024,2.6063843,0.3887024,2.9277039v23.5712891
		h-3.6650085V289.148407h3.6123047l7.0879059,24.2030945c0.036087,0.1289978,0.0751953,0.4853821,0.1107941,1.0712891
		c0-0.2362976,0.035202-0.5927124,0.1112976-1.0712891l7.0874023-24.2030945h3.6123047V326.3710938z"/>
	<path class="st2" d="M192.335434,308.6766968 M192.335434,292.0809937h-9.5284119v16.5947876h9.5284119V292.0809937z
		 M196.2094269,308.8457031c0,0.805603-0.3047028,1.469696-0.9092102,1.9872742
		c-0.6083984,0.5166016-1.3847961,0.7754211-2.3271027,0.7754211h-10.1660919v14.7626953h-3.875V289.148407h14.0410919
		c0.9423065,0,1.7187042,0.2587891,2.3271027,0.7724915c0.6045074,0.5136719,0.9092102,1.1776733,0.9092102,1.9902039V308.8457031z"
		/>
	<polygon class="st2" points="216.3842163,292.0809937 206.2289124,292.0809937 206.2289124,306.1630859 215.6000214,306.1630859 
		215.6000214,309.1473999 206.2289124,309.1473999 206.2289124,326.3710938 202.3539124,326.3710938 202.3539124,289.148407 
		216.3842163,289.148407 	"/>
	<path class="st2" d="M233.4945221,315.1688843l-3.8202972-20.1766968l-3.8759003,20.1766968H233.4945221z M239.4027252,326.3710938
		h-3.8730011l-1.5322113-8.2715149h-8.7032013l-1.5438843,8.2715149h-3.717804v-0.0957031l7.8008118-37.2315063h3.8212891
		L239.4027252,326.3710938z"/>
	<path class="st2" d="M258.7309265,319.3046875v-23.1337891c0-1.2207031-0.4512024-2.2090149-1.3575134-2.9609985
		c-0.9022827-0.7518921-2.0711975-1.1289063-3.5077972-1.1289063h-5.3945007v31.3583984h5.1719055
		c1.5077972,0,2.7353058-0.3662109,3.6776886-1.1054077C258.2592163,321.5975952,258.7309265,320.585907,258.7309265,319.3046875
		 M262.6039124,319.6405945c0,1.9599915-0.757782,3.5703125-2.273407,4.8329773
		c-1.5175781,1.265625-3.4317017,1.897522-5.7392883,1.897522h-9.9951019V289.148407h9.9951019
		c2.3272095,0,4.2442017,0.631897,5.7529907,1.8984985c1.5057983,1.2626648,2.2597046,2.875885,2.2597046,4.8329773V319.6405945z"/>
	<polygon class="st2" points="283.7250061,326.3710938 269.3813171,326.3710938 269.3813171,289.148407 283.5688171,289.148407 
		283.5688171,292.0809937 273.2553101,292.0809937 273.2553101,305.9541016 282.6264343,305.9541016 282.6264343,308.9375 
		273.2553101,308.9375 273.2553101,323.4393921 283.7250061,323.4393921 	"/>
	<path class="st2" d="M63.2836227,346.1698914h5.3008041c1.3939972,0,2.346199-0.2119141,2.8530045-0.6387024
		c0.503891-0.4237976,0.7597885-1.2265015,0.7597885-2.4003906c0-1.4736023-0.1899948-2.4316101-0.5629959-2.8759155
		c-0.3769989-0.4453125-1.1846008-0.6679993-2.4179993-0.6679993h-5.9326019V346.1698914z M61.4525223,354.2987976v-16.2557983
		h7.740799c1.7441101,0,2.9741058,0.3457031,3.6880035,1.0370789c0.713295,0.6903992,1.0692978,1.8916016,1.0692978,3.5957031
		c0,1.5019226-0.1933975,2.5487976-0.5820007,3.140625c-0.3901978,0.5917969-1.1279984,0.976593-2.2211914,1.1493835v0.0361023
		c1.7211914,0.1270142,2.5809937,1.1738892,2.5809937,3.140686v4.1562195h-1.8329926v-3.7373047
		c0-1.8974915-0.8208084-2.8467102-2.4668121-2.8467102h-0.6049957h-5.5400009v6.5840149H61.4525223z"/>
	<path class="st2" d="M78.2245255,338.0429993v6.2752991l0.0346985,0.0234985
		c0.4233017-1.0576172,1.5972061-1.5878906,3.5282974-1.5878906c2.8599091,0,4.2900009,1.266571,4.2900009,3.8026733v0.4649048
		v7.2773132h-1.663002v-7.2773132v-0.3212891c0-1.7041016-0.8788986-2.5586243-2.6371994-2.5586243
		c-1.4141006,0-2.3618927,0.2519226-2.836998,0.7519226c-0.4769974,0.5039063-0.7157974,1.5019836-0.7157974,2.9980774v6.4072266
		h-1.6620941v-16.2557983H78.2245255z"/>
	<path class="st2" d="M97.0116196,347.6229858l-0.0091934-0.5332031c0-1.2303772-0.2032013-2.0282898-0.608902-2.3954773
		c-0.405304-0.3701172-1.2793045-0.5527344-2.6182022-0.5527344c-1.3510971,0-2.2250977,0.2158203-2.6269989,0.648407
		c-0.3988953,0.4317017-0.6019974,1.3770142-0.6019974,2.8330078H97.0116196z M97.0116196,350.8554993h1.7046051l0.0142059,0.414978
		c0,1.1855164-0.3599091,2.015625-1.0811081,2.4883118c-0.7157974,0.4736023-1.9790039,0.7090149-3.7817001,0.7090149
		c-2.0971909,0-3.4711914-0.3829041-4.1294022-1.1484985c-0.6537933-0.765625-0.9809952-2.3760071-0.9809952-4.8271179
		c0-2.2695923,0.3290939-3.7940063,0.9872971-4.569397c0.6606979-0.7792969,1.9496994-1.1688843,3.8711014-1.1688843
		c2.097702,0,3.4716949,0.3378906,4.1215973,1.0116882c0.6524048,0.6728821,0.9790039,2.093811,0.9790039,4.2597961v0.8934937
		h-8.1929016c0,1.7940063,0.1939011,2.9346008,0.5792007,3.4258118c0.3827972,0.4911804,1.2826996,0.7373047,2.6958008,0.7373047
		c1.3432007,0,2.2118988-0.1191101,2.6122971-0.3515015c0.4018097-0.2364197,0.6009979-0.7402954,0.6009979-1.5176086V350.8554993z"
		/>
	<path class="st2" d="M103.0102234,354.2987976h-1.6625977v-11.3876953h1.6625977V354.2987976z M103.0102234,339.914978h-1.6625977
		v-1.8719788h1.6625977V339.914978z"/>
	<path class="st2" d="M105.9316254,342.9111023h1.6029968l-0.0493011,1.5478821l0.0493011,0.0350952
		c0.5078049-1.1600952,1.7699966-1.7401733,3.7855988-1.7401733c1.6259995,0,2.7260971,0.2850952,3.3013,0.8544922
		c0.5771027,0.5721741,0.8638,1.664978,0.8638,3.282196v7.4082031h-1.6616974v-7.2684937v-0.4278259
		c0-0.968689-0.1870041-1.6229858-0.5600052-1.9570007c-0.3731003-0.3368835-1.0932999-0.5039063-2.1552963-0.5039063
		c-2.3436966,0-3.5150986,1.1025085-3.5150986,3.3076172v6.8496094h-1.6615982V342.9111023z"/>
	<polygon class="st2" points="117.076622,347.6102905 122.1015244,347.6102905 122.1015244,349.1542969 117.0424271,349.1542969 	
		"/>
	<path class="st2" d="M141.4784241,338.0429993v16.2557983h-1.8320007v-13.0057983v-0.976593l0.0121918-0.4863281
		l0.0107117-0.4882813h-0.0458984l-0.1439972,0.3798828c-0.0718079,0.1884155-0.1182098,0.3134155-0.1431122,0.3691101
		l-0.3089905,0.7616882l-5.5391083,13.4463196h-1.8358917l-5.5489044-13.2910156l-0.3208008-0.75l-0.1440048-0.3818054
		c-0.0391006-0.0849915-0.0883942-0.2099915-0.1430969-0.3701782h-0.0468979l0.0098038,0.4404907l0.0131912,0.4520874v0.8946228
		v13.0057983h-1.8320007v-16.2557983h3.1767044l4.3349991,10.5125732l0.6943054,1.7041321l0.342804,0.8447876l0.3339996,0.8467102
		h0.0497894l0.3345032-0.8467102c0.1624908-0.4024048,0.2749023-0.6835938,0.3325043-0.8447876l0.7001953-1.6914063
		l4.3130035-10.5252991H141.4784241z"/>
	<path class="st2" d="M149.1742249,344.141571c-1.4756012,0-2.3877106,0.2392273-2.7425995,0.7197266
		c-0.3531036,0.4784851-0.5293121,1.7275085-0.5293121,3.75c0,2.0214844,0.1762085,3.2724915,0.5293121,3.7489929
		c0.3548889,0.4815063,1.2669983,0.7217102,2.7425995,0.7217102c1.4863892,0,2.4023895-0.2402039,2.7554016-0.7217102
		c0.3529968-0.4765015,0.5298004-1.7275085,0.5298004-3.7489929c0-2.0224915-0.1768036-3.2715149-0.5298004-3.75
		C151.5766144,344.3807983,150.660614,344.141571,149.1742249,344.141571 M149.1742249,342.7539063
		c2.1039886,0,3.4721985,0.3671875,4.0962067,1.0956726c0.6278839,0.7304993,0.9428864,2.3174133,0.9428864,4.7617188
		c0,2.4442749-0.3150024,4.0312805-0.9428864,4.7608032c-0.6240082,0.7294006-1.992218,1.0957031-4.0962067,1.0957031
		c-2.0947113,0-3.4589996-0.3663025-4.0839996-1.0957031c-0.6278992-0.7295227-0.9419098-2.3165283-0.9419098-4.7608032
		c0-2.4443054,0.3140106-4.0312195,0.9419098-4.7617188C145.7152252,343.1210938,147.0795135,342.7539063,149.1742249,342.7539063"
		/>
	<path class="st2" d="M165.6293182,345.8945007h-1.6688843c0-0.7871094-0.1602173-1.2783203-0.4810028-1.467804
		c-0.320816-0.1903992-1.1489105-0.2851257-2.4810028-0.2851257c-1.2358093,0-2.0209045,0.101532-2.3549042,0.3037109
		c-0.3330078,0.2030945-0.5010071,0.6875-0.5010071,1.4560242c0,1.1689758,0.5599976,1.7773743,1.6787109,1.8330994
		l1.3422852,0.071167l1.7021027,0.0831299c2.0596008,0.1034851,3.0899048,1.1835022,3.0899048,3.2362976
		c0,1.2772827-0.3388977,2.1513062-1.022995,2.6307983c-0.6810913,0.4726868-1.9310913,0.7120056-3.7470093,0.7120056
		c-1.8652954,0-3.147995-0.2256165-3.8471985-0.679718c-0.7041016-0.4551086-1.0536957-1.2861938-1.0536957-2.4931946
		l0.0097046-0.6229858h1.7270966l0.016098,0.5379944c0,0.7451782,0.1900024,1.2460938,0.5697937,1.4951782
		c0.3798981,0.2519226,1.1289063,0.3769226,2.2452087,0.3769226c1.3710022,0,2.2709045-0.1328125,2.7021027-0.3945007
		c0.4315948-0.2608032,0.6478882-0.8076172,0.6478882-1.6416016c0-1.1973267-0.5428925-1.7958984-1.628891-1.7958984
		c-2.5292969,0-4.1923065-0.2138977-4.9901886-0.6416016c-0.7949219-0.4287109-1.1938171-1.3153992-1.1938171-2.6679993
		c0-1.2754211,0.3139038-2.1260071,0.944809-2.5488281c0.6317902-0.4237671,1.8881989-0.6376648,3.7689972-0.6376648
		c3.0170898,0,4.5258942,0.9100952,4.5258942,2.726593V345.8945007z"/>
	<path class="st2" d="M176.2699127,347.6229858l-0.0106964-0.5332031c0-1.2303772-0.2021942-2.0282898-0.6083984-2.3954773
		c-0.405304-0.3701172-1.2763824-0.5527344-2.6172028-0.5527344c-1.351593,0-2.2245941,0.2158203-2.6268921,0.648407
		c-0.3995056,0.4317017-0.5997009,1.3770142-0.5997009,2.8330078H176.2699127z M176.2699127,350.8554993h1.7051086
		l0.0117035,0.414978c0,1.1855164-0.3592987,2.015625-1.0791016,2.4883118
		c-0.7158051,0.4736023-1.9804077,0.7090149-3.782196,0.7090149c-2.097702,0-3.472702-0.3829041-4.1289063-1.1484985
		c-0.655304-0.765625-0.9824066-2.3760071-0.9824066-4.8271179c0-2.2695923,0.3301086-3.7940063,0.989212-4.569397
		c0.6601868-0.7792969,1.9501953-1.1688843,3.8691864-1.1688843c2.0986023,0,3.4717102,0.3378906,4.1240082,1.0116882
		c0.6504059,0.6728821,0.9785004,2.093811,0.9785004,4.2597961v0.8934937h-8.1932983
		c0,1.7940063,0.1932983,2.9346008,0.5780945,3.4258118c0.3838043,0.4911804,1.2832031,0.7373047,2.6972046,0.7373047
		c1.3417969,0,2.2109985-0.1191101,2.6132965-0.3515015c0.3984985-0.2364197,0.5995941-0.7402954,0.5995941-1.5176086V350.8554993z"
		/>
	<rect x="180.6059265" y="338.0438843" class="st2" width="1.6621" height="16.2549"/>
	<polygon class="st2" points="183.7719269,347.6102905 188.7983246,347.6102905 188.7983246,349.1542969 183.7406158,349.1542969 	
		"/>
	<polygon class="st2" points="191.5141144,339.5868835 191.5141144,345.1366882 199.7719269,345.1366882 199.7719269,346.6805725 
		191.5141144,346.6805725 191.5141144,352.7539063 200.1264343,352.7539063 200.1264343,354.2987976 189.6820221,354.2987976 
		189.6820221,338.0429993 200.1264343,338.0429993 200.1264343,339.5868835 	"/>
	<path class="st2" d="M204.0609131,354.2987976h-1.6620941v-11.3876953h1.6620941V354.2987976z M204.0609131,339.914978h-1.6620941
		v-1.8719788h1.6620941V339.914978z"/>
	<path class="st2" d="M207.4281158,354.2987976v-10h-1.7402039v-1.3876953h1.7402039v-1.6914063
		c0-2.2207031,1.1493988-3.3340149,3.4434052-3.3340149c0.342804,0,0.7422028,0.0254211,1.2041016,0.0762024v1.3799133
		c-0.5400085-0.0458984-0.9365082-0.069397-1.1807098-0.069397c-1.2010956,0-1.8036957,0.5997009-1.8036957,1.7929993v1.8457031
		h2.9844055v1.3876953h-2.9844055v10H207.4281158z"/>
	<path class="st2" d="M221.3617249,347.6229858l-0.0097046-0.5332031c0-1.2303772-0.2032013-2.0282898-0.6083984-2.3954773
		c-0.4062958-0.3701172-1.280304-0.5527344-2.6181946-0.5527344c-1.3516083,0-2.2246094,0.2158203-2.6279144,0.648407
		c-0.3993988,0.4317017-0.6026001,1.3770142-0.6026001,2.8330078H221.3617249z M221.3617249,350.8554993h1.7050934
		l0.0126953,0.414978c0,1.1855164-0.3612976,2.015625-1.0800781,2.4883118
		c-0.7168121,0.4736023-1.9795227,0.7090149-3.7832184,0.7090149c-2.0966949,0-3.4707031-0.3829041-4.128891-1.1484985
		c-0.655304-0.765625-0.9813995-2.3760071-0.9813995-4.8271179c0-2.2695923,0.3299866-3.7940063,0.9882965-4.569397
		c0.6600952-0.7792969,1.9500885-1.1688843,3.8710022-1.1688843c2.0976868,0,3.4726868,0.3378906,4.1221008,1.0116882
		c0.6513977,0.6728821,0.9794922,2.093811,0.9794922,4.2597961v0.8934937h-8.1933899
		c0,1.7940063,0.1914978,2.9346008,0.5790863,3.4258118c0.3829193,0.4911804,1.2823029,0.7373047,2.6963043,0.7373047
		c1.3399048,0,2.2109985-0.1191101,2.6094055-0.3515015c0.4042969-0.2364197,0.6035004-0.7402954,0.6035004-1.5176086V350.8554993z"
		/>
	<rect x="225.6957245" y="338.0438843" class="st2" width="1.6621" height="16.2549"/>
	<polygon class="st2" points="228.8666229,347.6102905 233.8891144,347.6102905 233.8891144,349.1542969 228.8315125,349.1542969 	
		"/>
	<polygon class="st2" points="237.2602234,338.0429993 237.2602234,352.5966797 245.6234283,352.5966797 245.6234283,354.2987976 
		235.4272156,354.2987976 235.4272156,338.0429993 	"/>
	<path class="st2" d="M251.5883179,348.657196c-1.2774048,0-2.1074066,0.1347961-2.4940948,0.405304
		c-0.3829041,0.2723999-0.5743103,0.8515015-0.5743103,1.7411804c0,0.9219055,0.1885223,1.5312195,0.5684052,1.8291016
		c0.3827972,0.3008118,1.155304,0.4492188,2.3231964,0.4492188c2.3448029,0,3.5205078-0.7187195,3.5205078-2.1474304
		c0-0.8964844-0.2285004-1.5019836-0.6835938-1.8115845C253.7934265,348.8104858,252.906723,348.657196,251.5883179,348.657196
		 M248.9115143,346.1054993h-1.656189c0-1.3222961,0.3016968-2.2129211,0.8993988-2.6679993
		c0.5995941-0.4551086,1.7714996-0.6835938,3.5175934-0.6835938c1.8964996,0,3.1777039,0.2772827,3.8417969,0.8378906
		c0.6678925,0.5595093,1.0019073,1.6229858,1.0019073,3.1903992v7.5166016h-1.6621094l0.1309052-1.2275085l-0.0361938-0.0137024
		c-0.6357117,0.9424133-1.926712,1.4102173-3.871109,1.4102173c-2.875,0-4.3114929-1.155304-4.3114929-3.4707031
		c0-1.374115,0.3194122-2.3243103,0.9648895-2.8477173c0.644516-0.5263977,1.805603-0.789093,3.4902039-0.789093
		c2,0,3.2002106,0.3965149,3.5957031,1.1856079l0.0370941-0.0137024v-1.3799133
		c0-1.2998047-0.1805878-2.1395874-0.5370941-2.5263062c-0.3563843-0.3828735-1.1387024-0.5751953-2.3457031-0.5751953
		c-2.0477905,0-3.0722961,0.5722046-3.0722961,1.719696C248.898819,345.8262024,248.9008179,345.9375,248.9115143,346.1054993"/>
	<path class="st2" d="M259.598114,342.9111023h1.6035156l-0.0489197,1.5478821l0.0489197,0.0350952
		c0.5068054-1.1600952,1.7695007-1.7401733,3.7850952-1.7401733c1.6269836,0,2.7255859,0.2850952,3.3017883,0.8544922
		c0.5751953,0.5721741,0.8641968,1.664978,0.8641968,3.282196v7.4082031h-1.6620789v-7.2684937v-0.4278259
		c0-0.968689-0.1875-1.6229858-0.5605164-1.9570007c-0.3731079-0.3368835-1.092804-0.5039063-2.156311-0.5039063
		c-2.3417969,0-3.5135803,1.1025085-3.5135803,3.3076172v6.8496094h-1.6621094V342.9111023z"/>
	<path class="st2" d="M276.9301147,344.0527039c-1.2909851,0-2.1524048,0.2870789-2.5780945,0.8573914
		c-0.4248047,0.5712891-0.6376953,1.726593-0.6376953,3.4697876c0,1.9199219,0.2098999,3.180603,0.6337891,3.7850952
		c0.4198914,0.6035156,1.2948914,0.9043274,2.6201172,0.9043274c1.4432983,0,2.3837891-0.3008118,2.8173828-0.9043274
		c0.4335938-0.6044922,0.6502991-1.9178772,0.6502991-3.9414063c0-1.6356812-0.2402039-2.7421875-0.719696-3.3134766
		C279.2387085,344.3397827,278.3070068,344.0527039,276.9301147,344.0527039 M282.1996155,337.9003906v16.3965149h-1.75
		l0.0859985-1.4893188l-0.0469055-0.0126953c-0.5527954,1.1142883-1.8359985,1.6729126-3.8476868,1.6729126
		c-1.8398132,0-3.0927124-0.4288025-3.7645874-1.2832336c-0.6699219-0.8583679-1.0088196-2.4560852-1.0088196-4.7929993
		c0-2.1513672,0.3388977-3.6454773,1.0155945-4.4853821c0.6758118-0.8348999,1.8887024-1.2539063,3.6347961-1.2539063
		c2.179718,0,3.4775085,0.5391235,3.8935242,1.6114197l0.0380859-0.0234985v-6.3398132H282.1996155z"/>
</g>
</svg>
