<?xml version="1.0" encoding="UTF-8" standalone="no"?>
<!DOCTYPE svg PUBLIC "-//W3C//DTD SVG 1.1//EN" "http://www.w3.org/Graphics/SVG/1.1/DTD/svg11.dtd">
<svg width="100%" height="100%" viewBox="0 0 1729 864" version="1.1" xmlns="http://www.w3.org/2000/svg" xmlns:xlink="http://www.w3.org/1999/xlink" xml:space="preserve" xmlns:serif="http://www.serif.com/" style="fill-rule:evenodd;clip-rule:evenodd;stroke-linejoin:round;stroke-miterlimit:2;">
    <g transform="matrix(14.1137,0,0,14.1137,-14064,-3640.5)">
        <text x="1056.06px" y="299.509px" style="font-family:'MarkerFelt-Thin', 'Marker Felt';font-size:14.667px;fill:rgb(255,160,89);">Fe<tspan x="1068.67px 1075.14px 1078.37px 1084.88px 1092.49px 1100.25px 1107.33px " y="299.509px 299.509px 299.509px 299.509px 299.509px 299.509px 299.509px ">rienhau</tspan>s</text>
    </g>
    <g transform="matrix(18.7304,0,0,18.7304,-19366.3,-4759.77)">
        <text x="1056.06px" y="299.509px" style="font-family:'MarkerFelt-Thin', 'Marker Felt';font-size:14.667px;fill:rgb(135,220,0);">a<tspan x="1063.14px 1069.54px 1075.48px 1081.99px 1089.72px 1096.53px 1103.24px 1106.85px 1114.02px 1120.56px " y="299.509px 299.509px 299.509px 299.509px 299.509px 299.509px 299.509px 299.509px 299.509px 299.509px ">usendblatt</tspan></text>
    </g>
    <g>
        <g transform="matrix(0.872085,0,0,0.86615,-436.316,-98.8498)">
            <path d="M1037.5,154.919L1064.72,124.719L1060.86,165.753L1098.58,148.966L1078.37,184.905L1119.67,184.905L1085.59,210.262L1125.47,228.374L1083.85,236.702L1111.96,268.365L1070.53,259.058L1083.34,299.428L1050.59,275.055L1046.77,315.7L1025.36,279.174L1004.56,316.169L999.843,274.08L965.782,299.428L979.025,257.681L937.377,266.016L965.015,235.349L924.802,226.314L962.531,209.521L929.455,184.905L970.11,184.905L948.469,147.983L987.707,165.804L982.907,122.977L1011.53,155.219L1024.56,114.126L1037.5,154.919Z" style="fill:rgb(255,188,0);"/>
            <g transform="matrix(1.42707,0,0,1.42707,-450.812,-98.3261)">
                <circle cx="1034.25" cy="219.662" r="37.245" style="fill:rgb(255,173,0);"/>
            </g>
        </g>
        <g transform="matrix(1.05864e-16,-1.7289,1.8785,1.15025e-16,-192.954,1448.6)">
            <path d="M639.965,322.428C563.35,330.14 501.148,376.904 501.148,432.717C501.148,488.53 563.35,535.293 639.965,543.006C610.183,514.14 563.448,471.741 563.448,432.791C563.448,393.841 600.23,360.662 639.965,322.428Z" style="fill:rgb(63,170,251);"/>
        </g>
        <g transform="matrix(-3.17593e-16,1.7289,-1.8785,-3.45074e-16,1020.04,-762.496)">
            <path d="M639.965,322.428C563.35,330.14 501.148,376.904 501.148,432.717C501.148,488.53 563.35,535.293 639.965,543.006C610.183,514.14 563.448,471.741 563.448,432.791C563.448,393.841 600.23,360.662 639.965,322.428Z" style="fill:rgb(174,134,80);"/>
        </g>
        <g transform="matrix(1.01225,2.7453e-16,-5.49821e-16,2.36282,-233.445,-419.669)">
            <path d="M639.965,322.428C563.35,330.14 501.148,376.904 501.148,432.717C501.148,488.53 563.35,535.293 639.965,543.006C610.183,514.14 563.448,471.741 563.448,432.791C563.448,393.841 600.23,360.662 639.965,322.428Z" style="fill:rgb(135,220,0);"/>
        </g>
        <g transform="matrix(-0.0911155,0.659856,-1.50519,-0.207843,1370.71,-11.3336)">
            <path d="M639.965,322.428C563.35,330.14 501.148,376.904 501.148,432.717C501.148,488.53 563.35,535.293 639.965,543.006C610.183,514.14 563.448,471.741 563.448,432.791C563.448,393.841 600.23,360.662 639.965,322.428Z" style="fill:rgb(181,180,181);"/>
        </g>
        <g transform="matrix(1,0,0,1,-267.167,-89.9638)">
            <path d="M939.786,335.524L903.77,335.524L903.77,269.635L883.689,269.635L904.796,248.241L904.796,203.913L930.783,203.913L930.783,221.901L957.411,194.911L1031.13,269.635L1014.11,269.635L1014.11,335.524L975.036,335.524L975.036,286.802L939.786,286.802L939.786,335.524Z" style="fill:rgb(255,191,0);"/>
        </g>
        <g transform="matrix(4.02948,0,0,4.02948,435.024,-6.25421)">
            <text x="58.815px" y="45.935px" style="font-family:'Arial-BoldMT', 'Arial', sans-serif;font-weight:700;font-size:16px;">5</text>
        </g>
    </g>
</svg>
